<?xml version="1.0" standalone="no"?>
<!DOCTYPE svg PUBLIC "-//W3C//DTD SVG 20010904//EN"
 "http://www.w3.org/TR/2001/REC-SVG-20010904/DTD/svg10.dtd">
<svg version="1.0" xmlns="http://www.w3.org/2000/svg"
 width="512.000000pt" height="512.000000pt" viewBox="0 0 512.000000 512.000000"
 preserveAspectRatio="xMidYMid meet">
<metadata>
Created by potrace 1.14, written by Peter Selinger 2001-2017
</metadata>
<g transform="translate(0.000000,512.000000) scale(0.100000,-0.100000)"
fill="#000000" stroke="none">
<path d="M645 4404 c35 -498 35 -1979 0 -2484 l-5 -75 315 0 315 0 -5 45 c-11
93 -25 545 -25 811 l0 276 183 7 c100 4 223 13 272 21 326 52 531 183 639 408
62 129 81 221 80 387 0 222 -42 330 -179 467 -183 183 -375 224 -960 202 -289
-11 -559 -8 -613 7 -23 6 -23 6 -17 -72z m880 -158 c110 -29 181 -88 229 -189
45 -96 59 -168 59 -317 1 -139 -11 -205 -54 -296 -76 -161 -216 -247 -426
-261 l-93 -6 0 535 c0 294 3 538 7 541 12 12 227 7 278 -7z"/>
<path d="M3645 3510 c-78 -11 -165 -41 -226 -80 -71 -46 -159 -146 -197 -224
-18 -37 -36 -66 -39 -63 -6 7 16 307 24 320 2 4 -15 4 -39 0 -56 -10 -424 -10
-462 0 l-28 8 5 -118 c3 -65 11 -413 18 -772 10 -533 10 -757 0 -1200 -7 -301
-15 -593 -18 -651 l-5 -105 286 0 287 0 -5 25 c-13 62 -27 546 -24 855 l3 340
28 -43 c61 -93 155 -164 267 -199 79 -25 320 -25 409 0 120 33 189 74 281 167
96 96 149 185 199 335 47 140 64 264 64 465 0 257 -31 402 -123 579 -49 94
-144 202 -226 256 -72 48 -190 91 -288 104 -85 12 -103 12 -191 1z m30 -251
c94 -44 170 -166 206 -329 16 -72 22 -146 26 -307 9 -344 -22 -521 -118 -669
-64 -99 -130 -138 -234 -138 -195 -1 -303 145 -345 467 -22 173 -9 445 32 622
38 167 125 307 220 353 59 29 153 29 213 1z"/>
</g>
</svg>
