<svg xmlns="http://www.w3.org/2000/svg" xmlns:xlink="http://www.w3.org/1999/xlink" width="846" height="300" viewBox="0 0 846 300" version="1.1"><title>Institut Acte - UMR 8218</title><desc></desc><defs><path d="M0 0.52L912.89 0.52 912.89 386 0 386 0 0.52Z"/></defs><g stroke="none" stroke-width="1" fill="none" fill-rule="evenodd"><g transform="translate(-40.000000, -38.000000)"><path d="M232.23 313.52C226.96 318.23 220.03 321.19 212.84 320.85 209.27 320.72 205.72 320.11 202.47 318.76 199.21 317.45 196.3 315.39 193.9 312.84 191.5 310.29 189.62 307.26 188.06 304.07 186.62 301.1 185.46 297.98 184.2 294.82 184.2 294.77 184.19 294.72 184.19 294.67L184.16 294.19 183.96 294.19C183.94 294.15 183.93 294.11 183.91 294.08 183.2 292.36 182.53 290.62 181.36 288.88 180.76 288.03 179.98 287.05 178.57 286.54 178.23 286.42 177.86 286.34 177.49 286.33 177.29 286.33 177.56 286.28 176.97 286.34 176.96 286.34 176.84 286.36 176.56 286.46 176.29 286.56 176.15 286.66 176.12 286.68L175.89 286.83C175.39 287.19 175.05 287.5 174.69 287.82 171.94 290.35 169.39 292.82 166.64 295.19 155.8 304.63 143.31 312.32 129.6 316.41 115.95 320.51 101.19 320.87 87.41 317.32 73.7 313.82 60.82 305.9 53.29 293.94 50.63 289.75 48.68 285.14 47.43 280.32 47.23 274.11 47.83 267.83 49.52 261.87 51.44 254.97 54.96 248.54 59.72 243.14 64.47 237.71 70.37 233.31 76.71 229.73 83.06 226.14 89.84 223.3 96.77 220.88 110.63 216.04 125.06 212.81 139.3 208.99 146.32 207.17 153.34 205.37 160.38 203.6 163.27 203.58 166.16 203.61 169.09 203.65 170.92 203.65 172.77 203.69 174.72 203.42 175.69 203.26 176.72 203.03 177.71 202.44 178.7 201.86 179.46 200.87 179.86 199.89 180.03 199.48 180.15 199.07 180.26 198.67 180.91 198.51 181.55 198.35 182.2 198.19L182.2 198.19 182.86 198.04 182.88 197.31C183.11 190.03 183.22 182.82 183.36 175.5 183.31 169.87 182.31 164.04 179.83 158.8L206.86 175.21C207.01 179.52 206.96 183.85 207 188.19L207.17 235.47 207.35 282.74C207.39 286.69 207.66 290.66 208.58 294.52 209.49 298.35 211.18 302.19 214.27 304.79 217.34 307.4 221.37 308.44 225.26 308.89 228.87 309.31 232.51 309.31 236.13 309.31 234.94 310.82 233.63 312.24 232.23 313.52L232.23 313.52ZM150.67 323.26C137.6 329.27 122.92 331.18 108.49 330.87 94.16 330.52 79.57 327.05 67.84 318.93 62.04 314.87 57.04 309.67 53.57 303.5 52.17 301.03 51.03 298.42 50.11 295.72 50.15 295.77 50.18 295.83 50.21 295.88 54.25 302.29 59.75 307.71 66 311.87 72.26 316.05 79.25 319.02 86.47 320.91 100.93 324.7 116.41 324.27 130.64 319.82 144.91 315.44 157.74 307.36 168.76 297.61 171.52 295.19 174.19 292.57 176.78 290.14 177.06 289.89 177.34 289.65 177.57 289.47 177.57 289.47 177.58 289.47 177.58 289.47 177.93 289.56 178.44 290.01 178.88 290.63 179.77 291.89 180.5 293.56 181.2 295.2 181.28 295.4 181.37 295.61 181.45 295.81 173.74 307.61 163.32 317.56 150.67 323.26L150.67 323.26ZM57.69 234.89C62.34 229.53 68.03 225.09 74.2 221.47 86.6 214.24 100.68 210.09 114.87 207.46 127.96 205.07 141.28 204 154.62 203.69 149.41 205.06 144.2 206.43 138.98 207.77L117.56 213.26C110.4 215.04 103.25 216.95 96.22 219.29 89.2 221.62 82.28 224.39 75.72 227.95 69.19 231.53 63 235.92 57.89 241.49 52.76 247.03 48.87 253.77 46.66 261.03 46.35 262.06 46.07 263.1 45.81 264.14 46 260.46 46.56 256.82 47.59 253.29 49.53 246.51 53.05 240.23 57.69 234.89L57.69 234.89ZM177.74 199.29C177.13 200.49 175.99 201.04 174.4 201.25 172.75 201.47 170.96 201.44 169.17 201.42 172.03 200.71 174.88 200 177.74 199.29L177.74 199.29ZM180.88 194.16C180.91 193.46 180.92 192.78 180.94 192.09L181.04 196.62C180.91 196.65 180.78 196.68 180.66 196.72 180.77 195.86 180.82 195 180.88 194.16L180.88 194.16ZM158.73 145.07C163.79 146.89 168.47 149.65 172.12 153.43L158.73 145.07ZM148.72 138.81L127.9 125.82C134.38 125.98 140.84 126.63 147.07 128.27 154.02 130.09 160.71 133.22 165.95 138.09 170.01 141.81 173.05 146.5 175.1 151.61 170.69 146.64 164.67 143.31 158.57 141.26 155.33 140.18 152.04 139.39 148.72 138.81L148.72 138.81ZM136.68 137.55C129.35 137.28 121.88 137.51 114.58 139.03 107.32 140.52 100.07 143.39 94.31 148.34 88.5 153.22 84.5 159.94 82.27 166.99 80.13 173.87 79.34 181.03 79.35 188.11L52.58 182.5C55.54 167.75 61.09 153.23 71.08 141.97 76.19 136.18 82.41 131.39 89.3 127.87 96.18 124.32 103.69 122.01 111.35 120.63 119.02 119.25 126.83 118.81 134.68 118.92 142.51 119.03 150.34 119.61 158.03 121 165.7 122.4 173.27 124.61 180.18 128.17 187.08 131.71 193.26 136.73 197.67 143.12 202.13 149.48 204.72 157.01 205.92 164.7 206.47 168.15 206.73 171.62 206.85 175.12L179.4 157.98C179.13 157.44 178.87 156.9 178.56 156.38 178.51 156.18 178.46 155.99 178.41 155.79 176.39 148.67 172.61 141.9 167.04 136.9 161.52 131.84 154.56 128.68 147.44 126.87 140.28 125.06 132.9 124.47 125.58 124.49L123.33 124.49 125.25 125.66 146.28 138.43C143.09 137.97 139.88 137.69 136.68 137.55L136.68 137.55ZM242.24 288.46C241.91 288.11 241.51 287.84 241.11 287.6 240.31 287.12 239.29 286.85 238.33 287.09 236.42 287.63 235.18 289.17 233.95 290.48 232.74 291.85 231.56 293.24 230.21 294.38 228.88 295.53 227.35 296.43 225.66 296.63 224 296.79 222.17 296.6 220.64 295.88 217.47 294.44 215.79 290.95 214.84 287.57 213.01 280.61 212.94 273.23 212.77 265.98L212.3 178.51C212.03 207.67 211.93 236.83 211.88 265.99 212 273.27 211.99 280.65 213.83 287.85 214.33 289.63 214.98 291.4 215.98 293.02 216.97 294.63 218.39 296.08 220.17 296.9 221.95 297.72 223.88 297.99 225.82 297.75 227.78 297.47 229.52 296.41 230.87 295.12 232.24 293.82 233.34 292.34 234.47 290.92 235.6 289.55 236.75 287.99 238.44 287.53 239.27 287.31 240.15 287.52 240.9 287.96 241.71 288.38 242.29 289.01 242.55 289.86 243.08 291.54 242.96 293.39 242.7 295.16 241.78 300.28 239.44 305.07 236.25 309.14 232.59 309.12 228.92 309.09 225.29 308.65 221.42 308.17 217.46 307.11 214.48 304.53 211.49 301.98 209.86 298.21 208.99 294.43 208.11 290.61 207.86 286.66 207.85 282.74L208.03 235.47 208.2 188.19C208.2 184.15 208.27 180.08 208.18 176.02L212.3 178.51 208.18 175.94C208.1 172.12 207.87 168.3 207.28 164.49 206.12 156.64 203.52 148.86 198.95 142.24 194.43 135.59 188.05 130.33 180.98 126.64 173.89 122.92 166.17 120.61 158.38 119.13 150.56 117.65 142.63 117.01 134.71 116.85 126.81 116.67 118.8 117.06 110.96 118.42 103.11 119.77 95.36 122.08 88.2 125.7 81.03 129.3 74.51 134.25 69.14 140.23 63.76 146.22 59.54 153.17 56.34 160.5 53.14 167.83 50.93 175.55 49.38 183.36L49.09 184.83 50.57 185.09 50.57 185.09 79.78 189.29 80.41 189.38 80.41 188.78 80.41 188.78C80.86 181.58 81.88 174.38 84.35 167.7 86.73 161.02 90.66 154.9 96.15 150.57 101.62 146.23 108.3 143.59 115.23 142.27 122.19 140.92 129.35 140.79 136.51 141.14 142.94 141.46 149.35 142.23 155.44 143.99L173.47 154.94C173.77 155.3 174.08 155.64 174.36 156.01 175.89 158.02 177.1 160.25 178.03 162.61 178.79 167.56 178.95 172.6 178.86 177.71L178.91 188.64C178.9 190.45 178.88 192.27 178.78 194.05 178.71 195.16 178.61 196.29 178.4 197.33 173.47 198.67 168.54 200 163.6 201.31 161.79 201.29 159.97 201.28 158.16 201.29 143.54 201.38 128.87 202.32 114.4 204.84 99.98 207.4 85.6 211.48 72.68 218.86 66.26 222.57 60.25 227.15 55.29 232.79 50.32 238.4 46.49 245.1 44.36 252.34 42.19 259.59 41.8 267.26 42.72 274.7 43.01 277.06 43.47 279.4 44.08 281.7 44.1 282.29 44.11 282.87 44.14 283.46 44.58 291.02 46.51 298.61 50.18 305.38 53.82 312.15 59.15 317.99 65.42 322.37 78.03 331.21 93.38 334.88 108.37 335.36 115.89 335.53 123.4 335.02 130.84 333.71 138.24 332.32 145.56 330.09 152.3 326.63 159.05 323.18 165.21 318.64 170.46 313.25 175.02 308.41 178.89 303 182.04 297.23 182.65 298.72 183.3 300.21 183.98 301.7 184.62 305.62 185.59 309.48 187.15 313.15 188.4 316.06 190.06 318.82 192.24 321.13 194.4 323.46 197.06 325.29 199.93 326.6 205.72 329.22 212.07 329.97 218.3 330.35 224.55 330.7 230.82 330.62 237.07 330.59 230.82 330.54 224.55 330.53 218.31 330.09 212.11 329.63 205.79 328.78 200.15 326.13 197.35 324.81 194.78 322.98 192.71 320.69 190.63 318.41 189.04 315.71 187.86 312.85 186.79 310.24 186.04 307.53 185.48 304.76 187.29 308.24 189.45 311.57 192.3 314.4 194.98 317.07 198.24 319.21 201.79 320.51 205.34 321.83 209.11 322.35 212.81 322.36 216.53 322.41 220.3 321.89 223.84 320.62 227.38 319.36 230.62 317.27 233.3 314.67 234.66 313.37 235.9 311.95 237 310.45L237.07 330.59 237.15 310.22C238.18 308.79 239.09 307.29 239.89 305.73 241.57 302.44 242.78 298.9 243.28 295.24 243.5 293.42 243.59 291.51 242.97 289.71 242.8 289.26 242.58 288.84 242.24 288.46L242.24 288.46Z" fill="#FFFFFF"/><path d="M232.23 313.52C226.96 318.23 220.03 321.19 212.84 320.85 209.27 320.72 205.72 320.11 202.47 318.76 199.21 317.45 196.3 315.39 193.9 312.84 191.5 310.29 189.62 307.26 188.06 304.07 186.62 301.1 185.46 297.98 184.2 294.82 184.2 294.77 184.19 294.72 184.19 294.67L184.16 294.19 183.96 294.19C183.94 294.15 183.93 294.11 183.91 294.08 183.2 292.36 182.53 290.62 181.36 288.88 180.76 288.03 179.98 287.05 178.57 286.54 178.23 286.42 177.86 286.34 177.49 286.33 177.29 286.33 177.56 286.28 176.97 286.34 176.96 286.34 176.84 286.36 176.56 286.46 176.29 286.56 176.15 286.66 176.12 286.68L175.89 286.83C175.39 287.19 175.05 287.5 174.69 287.82 171.94 290.35 169.39 292.82 166.64 295.19 155.8 304.63 143.31 312.32 129.6 316.41 115.95 320.51 101.19 320.87 87.41 317.32 73.7 313.82 60.82 305.9 53.29 293.94 50.63 289.75 48.68 285.14 47.43 280.32 47.23 274.11 47.83 267.83 49.52 261.87 51.44 254.97 54.96 248.54 59.72 243.14 64.47 237.71 70.37 233.31 76.71 229.73 83.06 226.14 89.84 223.3 96.77 220.88 110.63 216.04 125.06 212.81 139.3 208.99 146.32 207.17 153.34 205.37 160.38 203.6 163.27 203.58 166.16 203.61 169.09 203.65 170.92 203.65 172.77 203.69 174.72 203.42 175.69 203.26 176.72 203.03 177.71 202.44 178.7 201.86 179.46 200.87 179.86 199.89 180.03 199.48 180.15 199.07 180.26 198.67 180.91 198.51 181.55 198.35 182.2 198.19L182.2 198.19 182.86 198.04 182.88 197.31C183.11 190.03 183.22 182.82 183.36 175.5 183.31 169.87 182.31 164.04 179.83 158.8L206.86 175.21C207.01 179.52 206.96 183.85 207 188.19L207.17 235.47 207.35 282.74C207.39 286.69 207.66 290.66 208.58 294.52 209.49 298.35 211.18 302.19 214.27 304.79 217.34 307.4 221.37 308.44 225.26 308.89 228.87 309.31 232.51 309.31 236.13 309.31 234.94 310.82 233.63 312.24 232.23 313.52L232.23 313.52ZM150.67 323.26C137.6 329.27 122.92 331.18 108.49 330.87 94.16 330.52 79.57 327.05 67.84 318.93 62.04 314.87 57.04 309.67 53.57 303.5 52.17 301.03 51.03 298.42 50.11 295.72 50.15 295.77 50.18 295.83 50.21 295.88 54.25 302.29 59.75 307.71 66 311.87 72.26 316.05 79.25 319.02 86.47 320.91 100.93 324.7 116.41 324.27 130.64 319.82 144.91 315.44 157.74 307.36 168.76 297.61 171.52 295.19 174.19 292.57 176.78 290.14 177.06 289.89 177.34 289.65 177.57 289.47 177.57 289.47 177.58 289.47 177.58 289.47 177.93 289.56 178.44 290.01 178.88 290.63 179.77 291.89 180.5 293.56 181.2 295.2 181.28 295.4 181.37 295.61 181.45 295.81 173.74 307.61 163.32 317.56 150.67 323.26L150.67 323.26ZM57.69 234.89C62.34 229.53 68.03 225.09 74.2 221.47 86.6 214.24 100.68 210.09 114.87 207.46 127.96 205.07 141.28 204 154.62 203.69 149.41 205.06 144.2 206.43 138.98 207.77L117.56 213.26C110.4 215.04 103.25 216.95 96.22 219.29 89.2 221.62 82.28 224.39 75.72 227.95 69.19 231.53 63 235.92 57.89 241.49 52.76 247.03 48.87 253.77 46.66 261.03 46.35 262.06 46.07 263.1 45.81 264.14 46 260.46 46.56 256.82 47.59 253.29 49.53 246.51 53.05 240.23 57.69 234.89L57.69 234.89ZM177.74 199.29C177.13 200.49 175.99 201.04 174.4 201.25 172.75 201.47 170.96 201.44 169.17 201.42 172.03 200.71 174.88 200 177.74 199.29L177.74 199.29ZM180.88 194.16C180.91 193.46 180.92 192.78 180.94 192.09L181.04 196.62C180.91 196.65 180.78 196.68 180.66 196.72 180.77 195.86 180.82 195 180.88 194.16L180.88 194.16ZM158.73 145.07C163.79 146.89 168.47 149.65 172.12 153.43L158.73 145.07 158.73 145.07ZM148.72 138.81L127.9 125.82C134.38 125.98 140.84 126.63 147.07 128.27 154.02 130.09 160.71 133.22 165.95 138.09 170.01 141.81 173.05 146.5 175.1 151.61 170.69 146.64 164.67 143.31 158.57 141.26 155.33 140.18 152.04 139.39 148.72 138.81L148.72 138.81ZM136.68 137.55C129.35 137.28 121.88 137.51 114.58 139.03 107.32 140.52 100.07 143.39 94.31 148.34 88.5 153.22 84.5 159.94 82.27 166.99 80.13 173.87 79.34 181.03 79.35 188.11L52.58 182.5C55.54 167.75 61.09 153.23 71.08 141.97 76.19 136.18 82.41 131.39 89.3 127.87 96.18 124.32 103.69 122.01 111.35 120.63 119.02 119.25 126.83 118.81 134.68 118.92 142.51 119.03 150.34 119.61 158.03 121 165.7 122.4 173.27 124.61 180.18 128.17 187.08 131.71 193.26 136.73 197.67 143.12 202.13 149.48 204.72 157.01 205.92 164.7 206.47 168.15 206.73 171.62 206.85 175.12L179.4 157.98C179.13 157.44 178.87 156.9 178.56 156.38 178.51 156.18 178.46 155.99 178.41 155.79 176.39 148.67 172.61 141.9 167.04 136.9 161.52 131.84 154.56 128.68 147.44 126.87 140.28 125.06 132.9 124.47 125.58 124.49L123.33 124.49 125.25 125.66 146.28 138.43C143.09 137.97 139.88 137.69 136.68 137.55L136.68 137.55ZM242.24 288.46C241.91 288.11 241.51 287.84 241.11 287.6 240.31 287.12 239.29 286.85 238.33 287.09 236.42 287.63 235.18 289.17 233.95 290.48 232.74 291.85 231.56 293.24 230.21 294.38 228.88 295.53 227.35 296.43 225.66 296.63 224 296.79 222.17 296.6 220.64 295.88 217.47 294.44 215.79 290.95 214.84 287.57 213.01 280.61 212.94 273.23 212.77 265.98L212.3 178.51C212.03 207.67 211.93 236.83 211.88 265.99 212 273.27 211.99 280.65 213.83 287.85 214.33 289.63 214.98 291.4 215.98 293.02 216.97 294.63 218.39 296.08 220.17 296.9 221.95 297.72 223.88 297.99 225.82 297.75 227.78 297.47 229.52 296.41 230.87 295.12 232.24 293.82 233.34 292.34 234.47 290.92 235.6 289.55 236.75 287.99 238.44 287.53 239.27 287.31 240.15 287.52 240.9 287.96 241.71 288.38 242.29 289.01 242.55 289.86 243.08 291.54 242.96 293.39 242.7 295.16 241.78 300.28 239.44 305.07 236.25 309.14 232.59 309.12 228.92 309.09 225.29 308.65 221.42 308.17 217.46 307.11 214.48 304.53 211.49 301.98 209.86 298.21 208.99 294.43 208.11 290.61 207.86 286.66 207.85 282.74L208.03 235.47 208.2 188.19C208.2 184.15 208.27 180.08 208.18 176.02L212.3 178.51 208.18 175.94C208.1 172.12 207.87 168.3 207.28 164.49 206.12 156.64 203.52 148.86 198.95 142.24 194.43 135.59 188.05 130.33 180.98 126.64 173.89 122.92 166.17 120.61 158.38 119.13 150.56 117.65 142.63 117.01 134.71 116.85 126.81 116.67 118.8 117.06 110.96 118.42 103.11 119.77 95.36 122.08 88.2 125.7 81.03 129.3 74.51 134.25 69.14 140.23 63.76 146.22 59.54 153.17 56.34 160.5 53.14 167.83 50.93 175.55 49.38 183.36L49.09 184.83 50.57 185.09 50.57 185.09 79.78 189.29 80.41 189.38 80.41 188.78 80.41 188.78C80.86 181.58 81.88 174.38 84.35 167.7 86.73 161.02 90.66 154.9 96.15 150.57 101.62 146.23 108.3 143.59 115.23 142.27 122.19 140.92 129.35 140.79 136.51 141.14 142.94 141.46 149.35 142.23 155.44 143.99L173.47 154.94C173.77 155.3 174.08 155.64 174.36 156.01 175.89 158.02 177.1 160.25 178.03 162.61 178.79 167.56 178.95 172.6 178.86 177.71L178.91 188.64C178.9 190.45 178.88 192.27 178.78 194.05 178.71 195.16 178.61 196.29 178.4 197.33 173.47 198.67 168.54 200 163.6 201.31 161.79 201.29 159.97 201.28 158.16 201.29 143.54 201.38 128.87 202.32 114.4 204.84 99.98 207.4 85.6 211.48 72.68 218.86 66.26 222.57 60.25 227.15 55.29 232.79 50.32 238.4 46.49 245.1 44.36 252.34 42.19 259.59 41.8 267.26 42.72 274.7 43.01 277.06 43.47 279.4 44.08 281.7 44.1 282.29 44.11 282.87 44.14 283.46 44.58 291.02 46.51 298.61 50.18 305.38 53.82 312.15 59.15 317.99 65.42 322.37 78.03 331.21 93.38 334.88 108.37 335.36 115.89 335.53 123.4 335.02 130.84 333.71 138.24 332.32 145.56 330.09 152.3 326.63 159.05 323.18 165.21 318.64 170.46 313.25 175.02 308.41 178.89 303 182.04 297.23 182.65 298.72 183.3 300.21 183.98 301.7 184.62 305.62 185.59 309.48 187.15 313.15 188.4 316.06 190.06 318.82 192.24 321.13 194.4 323.46 197.06 325.29 199.93 326.6 205.72 329.22 212.07 329.97 218.3 330.35 224.55 330.7 230.82 330.62 237.07 330.59 230.82 330.54 224.55 330.53 218.31 330.09 212.11 329.63 205.79 328.78 200.15 326.13 197.35 324.81 194.78 322.98 192.71 320.69 190.63 318.41 189.04 315.71 187.86 312.85 186.79 310.24 186.04 307.53 185.48 304.76 187.29 308.24 189.45 311.57 192.3 314.4 194.98 317.07 198.24 319.21 201.79 320.51 205.34 321.83 209.11 322.35 212.81 322.36 216.53 322.41 220.3 321.89 223.84 320.62 227.38 319.36 230.62 317.27 233.3 314.67 234.66 313.37 235.9 311.95 237 310.45L237.07 330.59 237.15 310.22C238.18 308.79 239.09 307.29 239.89 305.73 241.57 302.44 242.78 298.9 243.28 295.24 243.5 293.42 243.59 291.51 242.97 289.71 242.8 289.26 242.58 288.84 242.24 288.46L242.24 288.46Z" stroke="#1A1918" stroke-width="3"/><path d="M175.51 254.65C171.41 265.92 164.58 276.28 155.3 283.71 146.08 291.23 134.39 295.29 122.68 295.62 117.65 295.83 112.64 295.35 107.83 294.16 108.54 291.49 109.38 288.81 110.22 286.11 111.91 280.71 113.67 275.24 114.74 269.53 115.28 266.67 115.67 263.79 115.78 260.81 115.87 257.9 115.7 254.77 114.69 251.82 113.72 248.87 111.83 246.06 109.25 244.19 108.09 243.34 106.82 242.7 105.52 242.18L108.6 241.31 116.75 238.89C137.81 232.68 158.81 226.28 179.91 220.23 180.88 231.86 179.47 243.7 175.51 254.65M179.9 219.97C179.87 219.68 179.86 219.39 179.83 219.1 179.86 219.39 179.87 219.68 179.9 219.97 158.68 225.65 137.36 230.99 116.1 236.53L107.87 238.66 103.76 239.66 101.69 240.15 100.61 240.43C100.42 240.48 100.24 240.53 99.97 240.63 99.89 240.67 99.85 240.67 99.71 240.75L99.53 240.85C99.4 240.93 99.24 241.07 99.13 241.2 98.91 241.35 98.61 242.33 98.84 242.7 99.07 243.3 99.42 243.5 99.44 243.52 99.77 243.74 99.79 243.7 99.93 243.77 100.54 243.97 100.78 244 101.15 244.09L102.13 244.34C102.77 244.51 103.39 244.71 103.99 244.95 105.19 245.42 106.31 246.03 107.3 246.79 109.29 248.3 110.67 250.45 111.43 252.88 112.19 255.33 112.38 257.96 112.26 260.7 112.15 263.39 111.76 266.14 111.23 268.84 110.13 274.27 108.5 279.64 106.84 285.06 106.02 287.75 105.19 290.45 104.48 293.23 99.31 291.51 94.5 288.72 90.86 284.79 82.88 276.54 81.77 263.48 84.82 252.49 86.42 246.95 89.55 241.9 93.84 237.94 98.1 233.95 103.31 230.95 108.79 228.66 119.83 224.12 131.81 221.97 143.74 220.63 155.72 219.36 167.79 219.05 179.83 219.1 167.79 218.99 155.72 219.19 143.7 220.13 131.7 221.12 119.6 222.74 108.13 226.99 102.43 229.12 96.89 232.01 92.18 236.1 87.47 240.15 83.75 245.55 81.85 251.57 80.89 254.56 80.32 257.67 80.06 260.78 79.94 262.33 79.87 263.9 79.89 265.44 79.92 267.05 80.03 268.59 80.26 270.17 81.11 276.42 83.82 282.57 88.21 287.26 92.45 291.79 97.97 294.86 103.74 296.67 103.41 298.43 103.17 300.25 103.22 302.17 103.29 303.74 103.57 305.47 104.53 307.04 105.49 308.63 107.16 309.72 108.75 310.18 110.36 310.67 111.93 310.77 113.45 310.73 114.85 310.7 116.36 310.61 117.78 310.48 129.3 309.36 140.45 305.68 150.34 299.88 160.23 294.09 168.66 285.78 174.13 275.78 179.63 265.78 182.03 254.33 181.97 243.01 181.96 254.32 179.49 265.78 173.74 275.56 168.09 285.38 159.39 293.16 149.55 298.49 139.69 303.8 128.66 306.97 117.57 307.63 116.17 307.71 114.84 307.74 113.42 307.72 112.1 307.71 110.82 307.58 109.71 307.21 108.6 306.84 107.78 306.23 107.28 305.37 106.76 304.5 106.55 303.33 106.53 302.08 106.51 300.63 106.73 299.11 107.04 297.57 112.23 298.77 117.59 299.06 122.81 298.75 135.17 298.03 147.25 293.21 156.46 285.11 165.76 277.08 172.22 266.27 175.99 254.82 179.66 243.7 180.95 231.85 179.92 220.23 180.57 220.04 181.22 219.85 181.87 219.67L181.97 243.01 182.08 219.52 182.08 219.39 181.94 219.42C181.26 219.61 180.58 219.78 179.9 219.97" fill="#FFFFFF"/><path d="M175.51 254.65C171.41 265.92 164.58 276.28 155.3 283.71 146.08 291.23 134.39 295.29 122.68 295.62 117.65 295.83 112.64 295.35 107.83 294.16 108.54 291.49 109.38 288.81 110.22 286.11 111.91 280.71 113.67 275.24 114.74 269.53 115.28 266.67 115.67 263.79 115.78 260.81 115.87 257.9 115.7 254.77 114.69 251.82 113.72 248.87 111.83 246.06 109.25 244.19 108.09 243.34 106.82 242.7 105.52 242.18L108.6 241.31 116.75 238.89C137.81 232.68 158.81 226.28 179.91 220.23 180.88 231.86 179.47 243.7 175.51 254.65L175.51 254.65ZM179.9 219.97C179.87 219.68 179.86 219.39 179.83 219.1 179.86 219.39 179.87 219.68 179.9 219.97 158.68 225.65 137.36 230.99 116.1 236.53L107.87 238.66 103.76 239.66 101.69 240.15 100.61 240.43C100.42 240.48 100.24 240.53 99.97 240.63 99.89 240.67 99.85 240.67 99.71 240.75L99.53 240.85C99.4 240.93 99.24 241.07 99.13 241.2 98.91 241.35 98.61 242.33 98.84 242.7 99.07 243.3 99.42 243.5 99.44 243.52 99.77 243.74 99.79 243.7 99.93 243.77 100.54 243.97 100.78 244 101.15 244.09L102.13 244.34C102.77 244.51 103.39 244.71 103.99 244.95 105.19 245.42 106.31 246.03 107.3 246.79 109.29 248.3 110.67 250.45 111.43 252.88 112.19 255.33 112.38 257.96 112.26 260.7 112.15 263.39 111.76 266.14 111.23 268.84 110.13 274.27 108.5 279.64 106.84 285.06 106.02 287.75 105.19 290.45 104.48 293.23 99.31 291.51 94.5 288.72 90.86 284.79 82.88 276.54 81.77 263.48 84.82 252.49 86.42 246.95 89.55 241.9 93.84 237.94 98.1 233.95 103.31 230.95 108.79 228.66 119.83 224.12 131.81 221.97 143.74 220.63 155.72 219.36 167.79 219.05 179.83 219.1 167.79 218.99 155.72 219.19 143.7 220.13 131.7 221.12 119.6 222.74 108.13 226.99 102.43 229.12 96.89 232.01 92.18 236.1 87.47 240.15 83.75 245.55 81.85 251.57 80.89 254.56 80.32 257.67 80.06 260.78 79.94 262.33 79.87 263.9 79.89 265.44 79.92 267.05 80.03 268.59 80.26 270.17 81.11 276.42 83.82 282.57 88.21 287.26 92.45 291.79 97.97 294.86 103.74 296.67 103.41 298.43 103.17 300.25 103.22 302.17 103.29 303.74 103.57 305.47 104.53 307.04 105.49 308.63 107.16 309.72 108.75 310.18 110.36 310.67 111.93 310.77 113.45 310.73 114.85 310.7 116.36 310.61 117.78 310.48 129.3 309.36 140.45 305.68 150.34 299.88 160.23 294.09 168.66 285.78 174.13 275.78 179.63 265.78 182.03 254.33 181.97 243.01 181.96 254.32 179.49 265.78 173.74 275.56 168.09 285.38 159.39 293.16 149.55 298.49 139.69 303.8 128.66 306.97 117.57 307.63 116.17 307.71 114.84 307.74 113.42 307.72 112.1 307.71 110.82 307.58 109.71 307.21 108.6 306.84 107.78 306.23 107.28 305.37 106.76 304.5 106.55 303.33 106.53 302.08 106.51 300.63 106.73 299.11 107.04 297.57 112.23 298.77 117.59 299.06 122.81 298.75 135.17 298.03 147.25 293.21 156.46 285.11 165.76 277.08 172.22 266.27 175.99 254.82 179.66 243.7 180.95 231.85 179.92 220.23 180.57 220.04 181.22 219.85 181.87 219.67L181.97 243.01 182.08 219.52 182.08 219.39 181.94 219.42C181.26 219.61 180.58 219.78 179.9 219.97L179.9 219.97Z" stroke="#1A1918" stroke-width="3"/><path d="M406.25 322.6C401.64 324.99 396.82 326.95 391.87 328.53 401.85 324.37 411.1 318.34 418.59 310.58 425.4 303.66 430.75 295.48 434.75 286.78 436.9 288.79 439.07 290.78 441.25 292.76 431.93 305.11 420.01 315.54 406.25 322.6L406.25 322.6ZM278.29 286.1C267.47 267.61 262.71 245.88 262.69 224.35 262.6 202.78 267.34 180.98 278.31 162.3 283.76 152.98 290.87 144.56 299.42 137.84 307.94 131.09 317.8 126.11 328.19 122.87 338.59 119.64 349.53 118.22 360.44 118.26 371.33 118.35 382.26 120.26 392.44 124.2 402.63 128.11 412.01 134.13 419.77 141.83 427.54 149.48 433.59 158.74 438.17 168.63L412.52 173.24C409.85 167.56 406.21 162.28 401.7 157.88L403.45 157.39 404.2 157.18 403.91 156.48 403.9 156.47C402.55 152.79 400.03 149.79 397.24 147.2 394.42 144.64 391.18 142.57 387.75 140.91 380.89 137.6 373.16 136.08 365.56 136.26 358 136.46 350.46 137.54 343.18 139.92 337.9 141.64 332.81 144.17 328.27 147.49 322.94 149.84 317.9 152.87 313.38 156.58 303.46 164.61 296.06 175.55 291.48 187.46 291.35 187.79 291.25 188.13 291.12 188.46L273.92 193.43 273.85 193.45 273.83 193.52C272.63 198.17 271.87 202.92 271.45 207.71 271.01 212.5 270.85 217.3 270.98 222.11 271.06 232.34 272.06 242.59 274.21 252.6 275.27 257.61 276.63 262.56 278.27 267.4 279.97 272.23 281.95 276.95 284.25 281.52 279.96 272.24 276.89 262.45 274.86 252.47 272.84 242.47 271.97 232.28 272.01 222.09L272.01 222.09 272.01 222.07C271.85 217.31 271.85 212.52 272.04 207.75 272.31 203.02 272.61 198.2 274.06 193.66L290.95 188.92C286.71 200.44 284.85 212.74 284.64 224.98 284.51 237.73 286.28 250.62 290.56 262.75 294.84 274.84 301.87 286.15 311.6 294.71 321.27 303.29 333.57 308.99 346.47 310.43 349.15 310.75 351.93 310.82 354.61 310.77 356.94 311.16 359.28 311.4 361.63 311.47 365.43 311.58 369.17 311.34 372.89 311.01 380.34 310.31 387.73 308.85 394.8 306.47 401.87 304.12 408.73 301.02 414.93 296.82 420.75 292.92 426 288.17 430.67 282.9 431.51 283.72 432.37 284.52 433.23 285.33 428.72 293.79 422.96 301.52 416.06 307.99 408.22 315.28 398.98 320.96 388.96 324.58 378.94 328.18 368.32 330.09 357.62 330.38 351.39 330.6 345.22 330.19 339.15 329.17 338.36 328.93 337.55 328.74 336.76 328.48 329.18 326 321.94 322.43 315.34 317.88 302.08 308.81 291.54 295.94 284.26 281.51L284.25 281.52 284.23 281.52C291.01 296.2 301.15 309.55 314.34 319.28 317.05 321.29 319.91 323.1 322.85 324.77 304.14 317.64 288.37 303.52 278.29 286.1L278.29 286.1ZM311.82 182.47C312.68 179.05 313.73 175.69 315.04 172.44 317.69 165.82 321.39 159.61 326.43 154.64 331.43 149.64 337.66 145.93 344.42 143.56 345.92 143.03 347.46 142.58 349 142.17 355.04 141.59 361.13 141.83 367.13 142.62 373.44 143.5 379.67 145.14 385.48 147.73 390.67 150.07 395.48 153.2 399.65 157.06L311.82 182.47ZM306.43 184.03L293.66 187.72C297.82 176.17 304.67 165.47 314.07 157.41 317.7 154.26 321.71 151.54 325.97 149.29 325.1 150.01 324.24 150.76 323.42 151.55 317.78 156.89 313.57 163.58 310.63 170.64 308.82 174.99 307.49 179.49 306.43 184.03L306.43 184.03ZM400.5 156.81C396.14 152.81 391.09 149.61 385.69 147.26 379.79 144.73 373.51 143.16 367.16 142.37 361.16 141.66 355.07 141.5 349.07 142.15 354.45 140.71 360.07 139.93 365.66 139.59 372.84 139.15 380.09 140.31 386.7 143.19 390 144.62 393.12 146.49 395.9 148.76 398.46 150.86 400.8 153.37 402.25 156.3L400.5 156.81ZM303.28 237.57C304.75 252.58 308.48 267.56 315.85 281 319.55 287.67 324.13 294 330 299.08 333.09 301.83 336.55 304.18 340.23 306.07 330.45 303.78 321.26 298.99 313.73 292.31 304.47 284.15 297.72 273.34 293.6 261.67 289.43 249.97 287.85 237.45 287.81 224.99 287.69 212.54 289.27 199.97 293.47 188.22L306.29 184.62C305.69 187.27 305.15 189.93 304.73 192.6 303.57 200.06 303.02 207.56 302.81 215.04 302.64 222.5 302.55 230 303.28 237.57L303.28 237.57ZM383.99 303.38C395.27 297.49 404.63 287.99 409.95 276.53L428.67 281.38C420.2 292.66 408.12 301.35 394.46 305.37 387.39 307.42 380.07 308.44 372.74 308.67 371.93 308.69 371.11 308.71 370.29 308.72 375.05 307.47 379.65 305.66 383.99 303.38L383.99 303.38ZM435.99 283.91C436.16 283.49 436.35 283.08 436.52 282.67L436.91 281.68 435.94 281.48 435.93 281.48 432.09 280.58C431.88 280.41 431.68 280.23 431.48 280.06L430.36 279.14 429.72 280.03 409.8 275.39 409.38 275.3 409.19 275.68 409.19 275.69C403.58 286.89 394.04 295.87 382.88 301.19 377.31 303.88 371.32 305.63 365.25 306.64 362.21 307.12 359.11 307.47 356.07 307.57L355.99 307.57C354.4 307.24 352.83 306.84 351.3 306.34 344.51 304.16 338.36 300.39 333.23 295.53 328.12 290.63 323.86 284.82 320.53 278.47 317.17 272.13 314.7 265.32 312.75 258.36 310.8 251.4 309.47 244.24 308.75 237.03 308.02 229.86 308.02 222.5 308.09 215.17 308.21 207.84 308.66 200.54 309.7 193.35 310.2 189.9 310.84 186.48 311.66 183.12L400.83 158.13C400.93 158.22 401.04 158.31 401.13 158.41 405.62 162.9 409.19 168.23 411.77 174.04L411.93 174.41 438.31 168.77 438.41 168.75 438.36 168.66 438.36 168.65C433.94 158.64 427.81 149.31 420.04 141.55 412.29 133.77 402.88 127.67 392.64 123.68 382.41 119.67 371.43 117.67 360.44 117.47 349.47 117.32 338.42 118.64 327.86 121.81 306.69 128.02 288.06 142.22 276.04 160.9 270 170.22 265.63 180.61 262.84 191.36 260.02 202.11 258.67 213.23 258.5 224.31 258.33 235.41 259.32 246.57 261.82 257.45 264.34 268.32 268.33 278.9 273.9 288.64 279.47 298.37 286.63 307.27 295.21 314.59 303.77 321.94 313.77 327.63 324.48 331.26 329.83 333.06 335.36 334.39 340.96 335.13 346.56 335.84 352.26 336.01 357.82 335.75 357.91 335.75 358.01 335.74 358.1 335.74 358.74 335.79 359.38 335.89 360.02 335.92 376.5 336.88 393.13 333.04 407.72 325.46 422.37 317.93 435 306.74 444.71 293.52L445.56 292.35 444.49 291.38C441.68 288.86 438.85 286.37 435.99 283.91L435.99 283.91Z" fill="#FFFFFF"/><path d="M406.25 322.6C401.64 324.99 396.82 326.95 391.87 328.53 401.85 324.37 411.1 318.34 418.59 310.58 425.4 303.66 430.75 295.48 434.75 286.78 436.9 288.79 439.07 290.78 441.25 292.76 431.93 305.11 420.01 315.54 406.25 322.6L406.25 322.6ZM278.29 286.1C267.47 267.61 262.71 245.88 262.69 224.35 262.6 202.78 267.34 180.98 278.31 162.3 283.76 152.98 290.87 144.56 299.42 137.84 307.94 131.09 317.8 126.11 328.19 122.87 338.59 119.64 349.53 118.22 360.44 118.26 371.33 118.35 382.26 120.26 392.44 124.2 402.63 128.11 412.01 134.13 419.77 141.83 427.54 149.48 433.59 158.74 438.17 168.63L412.52 173.24C409.85 167.56 406.21 162.28 401.7 157.88L403.45 157.39 404.2 157.18 403.91 156.48 403.9 156.47C402.55 152.79 400.03 149.79 397.24 147.2 394.42 144.64 391.18 142.57 387.75 140.91 380.89 137.6 373.16 136.08 365.56 136.26 358 136.46 350.46 137.54 343.18 139.92 337.9 141.64 332.81 144.17 328.27 147.49 322.94 149.84 317.9 152.87 313.38 156.58 303.46 164.61 296.06 175.55 291.48 187.46 291.35 187.79 291.25 188.13 291.12 188.46L273.92 193.43 273.85 193.45 273.83 193.52C272.63 198.17 271.87 202.92 271.45 207.71 271.01 212.5 270.85 217.3 270.98 222.11 271.06 232.34 272.06 242.59 274.21 252.6 275.27 257.61 276.63 262.56 278.27 267.4 279.97 272.23 281.95 276.95 284.25 281.52 279.96 272.24 276.89 262.45 274.86 252.47 272.84 242.47 271.97 232.28 272.01 222.09L272.01 222.09 272.01 222.07C271.85 217.31 271.85 212.52 272.04 207.75 272.31 203.02 272.61 198.2 274.06 193.66L290.95 188.92C286.71 200.44 284.85 212.74 284.64 224.98 284.51 237.73 286.28 250.62 290.56 262.75 294.84 274.84 301.87 286.15 311.6 294.71 321.27 303.29 333.57 308.99 346.47 310.43 349.15 310.75 351.93 310.82 354.61 310.77 356.94 311.16 359.28 311.4 361.63 311.47 365.43 311.58 369.17 311.34 372.89 311.01 380.34 310.31 387.73 308.85 394.8 306.47 401.87 304.12 408.73 301.02 414.93 296.82 420.75 292.92 426 288.17 430.67 282.9 431.51 283.72 432.37 284.52 433.23 285.33 428.72 293.79 422.96 301.52 416.06 307.99 408.22 315.28 398.98 320.96 388.96 324.58 378.94 328.18 368.32 330.09 357.62 330.38 351.39 330.6 345.22 330.19 339.15 329.17 338.36 328.93 337.55 328.74 336.76 328.48 329.18 326 321.94 322.43 315.34 317.88 302.08 308.81 291.54 295.94 284.26 281.51L284.25 281.52 284.23 281.52C291.01 296.2 301.15 309.55 314.34 319.28 317.05 321.29 319.91 323.1 322.85 324.77 304.14 317.64 288.37 303.52 278.29 286.1L278.29 286.1ZM311.82 182.47C312.68 179.05 313.73 175.69 315.04 172.44 317.69 165.82 321.39 159.61 326.43 154.64 331.43 149.64 337.66 145.93 344.42 143.56 345.92 143.03 347.46 142.58 349 142.17 355.04 141.59 361.13 141.83 367.13 142.62 373.44 143.5 379.67 145.14 385.48 147.73 390.67 150.07 395.48 153.2 399.65 157.06L311.82 182.47 311.82 182.47ZM306.43 184.03L293.66 187.72C297.82 176.17 304.67 165.47 314.07 157.41 317.7 154.26 321.71 151.54 325.97 149.29 325.1 150.01 324.24 150.76 323.42 151.55 317.78 156.89 313.57 163.58 310.63 170.64 308.82 174.99 307.49 179.49 306.43 184.03L306.43 184.03ZM400.5 156.81C396.14 152.81 391.09 149.61 385.69 147.26 379.79 144.73 373.51 143.16 367.16 142.37 361.16 141.66 355.07 141.5 349.07 142.15 354.45 140.71 360.07 139.93 365.66 139.59 372.84 139.15 380.09 140.31 386.7 143.19 390 144.62 393.12 146.49 395.9 148.76 398.46 150.86 400.8 153.37 402.25 156.3L400.5 156.81 400.5 156.81ZM303.28 237.57C304.75 252.58 308.48 267.56 315.85 281 319.55 287.67 324.13 294 330 299.08 333.09 301.83 336.55 304.18 340.23 306.07 330.45 303.78 321.26 298.99 313.73 292.31 304.47 284.15 297.72 273.34 293.6 261.67 289.43 249.97 287.85 237.45 287.81 224.99 287.69 212.54 289.27 199.97 293.47 188.22L306.29 184.62C305.69 187.27 305.15 189.93 304.73 192.6 303.57 200.06 303.02 207.56 302.81 215.04 302.64 222.5 302.55 230 303.28 237.57L303.28 237.57ZM383.99 303.38C395.27 297.49 404.63 287.99 409.95 276.53L428.67 281.38C420.2 292.66 408.12 301.35 394.46 305.37 387.39 307.42 380.07 308.44 372.74 308.67 371.93 308.69 371.11 308.71 370.29 308.72 375.05 307.47 379.65 305.66 383.99 303.38L383.99 303.38ZM435.99 283.91C436.16 283.49 436.35 283.08 436.52 282.67L436.91 281.68 435.94 281.48 435.93 281.48 432.09 280.58C431.88 280.41 431.68 280.23 431.48 280.06L430.36 279.14 429.72 280.03 409.8 275.39 409.38 275.3 409.19 275.68 409.19 275.69C403.58 286.89 394.04 295.87 382.88 301.19 377.31 303.88 371.32 305.63 365.25 306.64 362.21 307.12 359.11 307.47 356.07 307.57L355.99 307.57C354.4 307.24 352.83 306.84 351.3 306.34 344.51 304.16 338.36 300.39 333.23 295.53 328.12 290.63 323.86 284.82 320.53 278.47 317.17 272.13 314.7 265.32 312.75 258.36 310.8 251.4 309.47 244.24 308.75 237.03 308.02 229.86 308.02 222.5 308.09 215.17 308.21 207.84 308.66 200.54 309.7 193.35 310.2 189.9 310.84 186.48 311.66 183.12L400.83 158.13C400.93 158.22 401.04 158.31 401.13 158.41 405.62 162.9 409.19 168.23 411.77 174.04L411.93 174.41 438.31 168.77 438.41 168.75 438.36 168.66 438.36 168.65C433.94 158.64 427.81 149.31 420.04 141.55 412.29 133.77 402.88 127.67 392.64 123.68 382.41 119.67 371.43 117.67 360.44 117.47 349.47 117.32 338.42 118.64 327.86 121.81 306.69 128.02 288.06 142.22 276.04 160.9 270 170.22 265.63 180.61 262.84 191.36 260.02 202.11 258.67 213.23 258.5 224.31 258.33 235.41 259.32 246.57 261.82 257.45 264.34 268.32 268.33 278.9 273.9 288.64 279.47 298.37 286.63 307.27 295.21 314.59 303.77 321.94 313.77 327.63 324.48 331.26 329.83 333.06 335.36 334.39 340.96 335.13 346.56 335.84 352.26 336.01 357.82 335.75 357.91 335.75 358.01 335.74 358.1 335.74 358.74 335.79 359.38 335.89 360.02 335.92 376.5 336.88 393.13 333.04 407.72 325.46 422.37 317.93 435 306.74 444.71 293.52L445.56 292.35 444.49 291.38C441.68 288.86 438.85 286.37 435.99 283.91L435.99 283.91Z" stroke="#1A1918" stroke-width="3"/><path d="M753.68 318.33C746.9 322.25 739.69 325.39 732.23 327.76 738.15 325.39 743.91 322.61 749.34 319.23 757.74 314.03 765.38 307.56 771.71 299.96 778.07 292.37 783.1 283.7 786.64 274.46 787.29 272.77 787.87 271.06 788.43 269.34L795.33 274.2C786.38 292.71 771.48 308.11 753.68 318.33L753.68 318.33ZM663.72 330C654.43 326.41 645.82 321.14 638.29 314.64 630.75 308.15 624.29 300.45 618.89 292.1 613.47 283.75 609.14 274.73 605.69 265.4 602.25 256.07 599.58 246.45 597.87 236.67 594.43 217.17 595.09 196.62 602.28 178.14 605.84 168.93 611.01 160.36 617.52 152.98 624.04 145.6 631.87 139.4 640.5 134.68 649.11 129.92 658.52 126.61 668.13 124.54 677.74 122.47 687.67 121.78 697.38 122.96 707.09 124.11 716.58 127.08 725.15 131.77 733.75 136.43 741.46 142.67 748.12 149.88 761.06 163.89 770.14 181.13 776.57 199.12L703.7 221.74 629.07 245.01 627.68 245.45 627.69 245.47 603.6 252.17 602.3 252.52 602.7 253.82C608.95 274.37 619.25 294.15 634.84 309.39 642.59 316.98 651.57 323.38 661.46 327.96 668.71 331.32 676.42 333.7 684.3 335.04 677.26 334.23 670.33 332.56 663.72 330L663.72 330ZM651.96 293.05C657.91 299.49 665.16 304.87 673.34 308.21 681.5 311.57 690.46 312.8 699.19 312.18 700.24 312.11 701.28 312.01 702.32 311.9 703.75 312.17 705.19 312.42 706.64 312.59 714.82 313.58 723.12 312.94 731.1 311.17 735.1 310.25 738.98 309.23 742.88 307.62 746.71 306.04 750.34 304.02 753.73 301.7 760.53 297.05 766.42 291.25 771.61 284.98 776.4 279.18 780.58 272.94 784.36 266.48L788.08 269.1C787.52 270.86 786.94 272.6 786.28 274.32 782.79 283.54 777.82 292.2 771.52 299.8 765.23 307.4 757.64 313.89 749.27 319.13 743.72 322.61 737.82 325.48 731.74 327.91 729.33 328.67 726.89 329.35 724.44 329.95 714.21 332.44 703.63 333.51 693.15 332.76 682.68 332.03 672.35 329.4 662.82 325.02 653.27 320.64 644.57 314.49 637.03 307.15 622.24 292.71 612.03 274.02 605.65 254.32L628.37 247.74C633.21 264.01 640.19 280.28 651.96 293.05L651.96 293.05ZM724.57 306.12C732.67 302.95 740.42 298.64 746.96 292.82 753.51 287.03 758.66 279.72 762.09 271.72 765.51 263.81 767.39 255.34 768.44 246.84L792.61 245.83C792.04 252.51 790.89 259.15 789.11 265.62L784.82 262.62 783.27 261.53 782.34 263.17C778.43 270.09 774.05 276.74 769.03 282.86 764.01 288.96 758.35 294.56 751.89 299.01 748.66 301.23 745.24 303.15 741.65 304.64 738.13 306.12 734.21 307.18 730.4 308.07 724.65 309.36 718.75 310.04 712.88 309.92 716.86 308.89 720.76 307.61 724.57 306.12L724.57 306.12ZM789.47 265.87C791.34 259.25 792.55 252.44 793.14 245.59L793.17 245.3 792.88 245.31 768.13 246.17 767.84 246.18 767.8 246.47C766.67 255 764.69 263.48 761.19 271.33 757.73 279.18 752.6 286.28 746.12 291.88 739.66 297.5 732.02 301.65 724.01 304.68 718.41 306.8 712.63 308.48 706.75 309.47 699.06 308.54 691.59 306.07 684.85 302.22 678.03 298.35 671.99 293.13 666.82 287.16 656.7 275.44 649.79 261.16 645 246.38 667.39 239.35 689.78 232.3 712.13 225.14L780.31 203.41 711.76 223.92C688.9 230.73 666.08 237.66 643.26 244.6L642.19 244.92 642.52 245.99C647.24 261.41 654.2 276.43 664.77 288.92 670.04 295.14 676.27 300.64 683.38 304.78 687.47 307.19 691.87 309.08 696.42 310.45 688.79 310.56 681.15 309.23 674.15 306.25 666.33 302.97 659.42 297.72 653.73 291.43 648.02 285.11 643.45 277.81 639.76 270.12 636.24 262.84 633.67 255.23 631.36 247.41L663.76 237.49 692.36 229.21 780.31 203.41 729.22 217.4 779.41 201.96 781.18 201.42 780.57 199.68C773.9 180.76 764.37 162.49 750.54 147.63 743.64 140.23 735.62 133.79 726.66 128.98 717.72 124.14 707.82 121.06 697.73 119.95 687.62 118.84 677.39 119.67 667.55 121.9 657.71 124.13 648.14 127.62 639.34 132.6 630.54 137.55 622.58 143.99 615.97 151.63 609.38 159.27 604.2 168.1 600.67 177.52 593.55 196.46 593.14 217.26 596.81 236.86 600.6 256.48 607.6 275.58 618.47 292.38 623.92 300.74 630.44 308.44 638.04 314.93 645.63 321.43 654.29 326.68 663.63 330.24 671.19 333.13 679.17 334.86 687.24 335.48 689.12 335.74 691.01 335.96 692.9 336.1 703.76 336.91 714.71 335.84 725.25 333.3 735.78 330.79 746.02 326.82 755.45 321.42 774.35 310.73 789.99 294.15 799.12 274.37L799.73 273.05 798.54 272.22 789.47 265.87Z" fill="#FFFFFF"/><path d="M753.68 318.33C746.9 322.25 739.69 325.39 732.23 327.76 738.15 325.39 743.91 322.61 749.34 319.23 757.74 314.03 765.38 307.56 771.71 299.96 778.07 292.37 783.1 283.7 786.64 274.46 787.29 272.77 787.87 271.06 788.43 269.34L795.33 274.2C786.38 292.71 771.48 308.11 753.68 318.33L753.68 318.33ZM663.72 330C654.43 326.41 645.82 321.14 638.29 314.64 630.75 308.15 624.29 300.45 618.89 292.1 613.47 283.75 609.14 274.73 605.69 265.4 602.25 256.07 599.58 246.45 597.87 236.67 594.43 217.17 595.09 196.62 602.28 178.14 605.84 168.93 611.01 160.36 617.52 152.98 624.04 145.6 631.87 139.4 640.5 134.68 649.11 129.92 658.52 126.61 668.13 124.54 677.74 122.47 687.67 121.78 697.38 122.96 707.09 124.11 716.58 127.08 725.15 131.77 733.75 136.43 741.46 142.67 748.12 149.88 761.06 163.89 770.14 181.13 776.57 199.12L703.7 221.74 629.07 245.01 627.68 245.45 627.69 245.47 603.6 252.17 602.3 252.52 602.7 253.82C608.95 274.37 619.25 294.15 634.84 309.39 642.59 316.98 651.57 323.38 661.46 327.96 668.71 331.32 676.42 333.7 684.3 335.04 677.26 334.23 670.33 332.56 663.72 330L663.72 330ZM651.96 293.05C657.91 299.49 665.16 304.87 673.34 308.21 681.5 311.57 690.46 312.8 699.19 312.18 700.24 312.11 701.28 312.01 702.32 311.9 703.75 312.17 705.19 312.42 706.64 312.59 714.82 313.58 723.12 312.94 731.1 311.17 735.1 310.25 738.98 309.23 742.88 307.62 746.71 306.04 750.34 304.02 753.73 301.7 760.53 297.05 766.42 291.25 771.61 284.98 776.4 279.18 780.58 272.94 784.36 266.48L788.08 269.1C787.52 270.86 786.94 272.6 786.28 274.32 782.79 283.54 777.82 292.2 771.52 299.8 765.23 307.4 757.64 313.89 749.27 319.13 743.72 322.61 737.82 325.48 731.74 327.91 729.33 328.67 726.89 329.35 724.44 329.95 714.21 332.44 703.63 333.51 693.15 332.76 682.68 332.03 672.35 329.4 662.82 325.02 653.27 320.64 644.57 314.49 637.03 307.15 622.24 292.71 612.03 274.02 605.65 254.32L628.37 247.74C633.21 264.01 640.19 280.28 651.96 293.05L651.96 293.05ZM724.57 306.12C732.67 302.95 740.42 298.64 746.96 292.82 753.51 287.03 758.66 279.72 762.09 271.72 765.51 263.81 767.39 255.34 768.44 246.84L792.61 245.83C792.04 252.51 790.89 259.15 789.11 265.62L784.82 262.62 783.27 261.53 782.34 263.17C778.43 270.09 774.05 276.74 769.03 282.86 764.01 288.96 758.35 294.56 751.89 299.01 748.66 301.23 745.24 303.15 741.65 304.64 738.13 306.12 734.21 307.18 730.4 308.07 724.65 309.36 718.75 310.04 712.88 309.92 716.86 308.89 720.76 307.61 724.57 306.12L724.57 306.12ZM789.47 265.87C791.34 259.25 792.55 252.44 793.14 245.59L793.17 245.3 792.88 245.31 768.13 246.17 767.84 246.18 767.8 246.47C766.67 255 764.69 263.48 761.19 271.33 757.73 279.18 752.6 286.28 746.12 291.88 739.66 297.5 732.02 301.65 724.01 304.68 718.41 306.8 712.63 308.48 706.75 309.47 699.06 308.54 691.59 306.07 684.85 302.22 678.03 298.35 671.99 293.13 666.82 287.16 656.7 275.44 649.79 261.16 645 246.38 667.39 239.35 689.78 232.3 712.13 225.14L780.31 203.41 711.76 223.92C688.9 230.73 666.08 237.66 643.26 244.6L642.19 244.92 642.52 245.99C647.24 261.41 654.2 276.43 664.77 288.92 670.04 295.14 676.27 300.64 683.38 304.78 687.47 307.19 691.87 309.08 696.42 310.45 688.79 310.56 681.15 309.23 674.15 306.25 666.33 302.97 659.42 297.72 653.73 291.43 648.02 285.11 643.45 277.81 639.76 270.12 636.24 262.84 633.67 255.23 631.36 247.41L663.76 237.49 692.36 229.21 780.31 203.41 729.22 217.4 779.41 201.96 781.18 201.42 780.57 199.68C773.9 180.76 764.37 162.49 750.54 147.63 743.64 140.23 735.62 133.79 726.66 128.98 717.72 124.14 707.82 121.06 697.73 119.95 687.62 118.84 677.39 119.67 667.55 121.9 657.71 124.13 648.14 127.62 639.34 132.6 630.54 137.55 622.58 143.99 615.97 151.63 609.38 159.27 604.2 168.1 600.67 177.52 593.55 196.46 593.14 217.26 596.81 236.86 600.6 256.48 607.6 275.58 618.47 292.38 623.92 300.74 630.44 308.44 638.04 314.93 645.63 321.43 654.29 326.68 663.63 330.24 671.19 333.13 679.17 334.86 687.24 335.48 689.12 335.74 691.01 335.96 692.9 336.1 703.76 336.91 714.71 335.84 725.25 333.3 735.78 330.79 746.02 326.82 755.45 321.42 774.35 310.73 789.99 294.15 799.12 274.37L799.73 273.05 798.54 272.22 789.47 265.87 789.47 265.87Z" stroke="#1A1918" stroke-width="3"/><path d="M623.15 201.86C623.94 193.87 626.04 185.97 629.59 178.72 633.13 171.46 638.3 165.01 644.54 159.86 645.97 158.67 647.46 157.57 649 156.53 643.31 162.66 639.36 170.28 636.99 178.3 634.54 186.66 633.7 195.44 633.94 204.15 634.1 209.69 634.74 215.22 635.72 220.68 631.86 221.94 628.01 223.21 624.15 224.47 622.83 217.03 622.4 209.41 623.15 201.86L623.15 201.86ZM654.08 218.16L684.55 208.96 714.9 199.37C721.69 197.25 728.46 195.05 735.22 192.84 735.02 194.81 734.34 196.63 732.96 197.95 731.67 199.22 730.04 200.01 728.12 200.57L722.15 202.32 710.18 205.88 686.27 213.14C670.82 217.93 655.4 222.79 640.03 227.84 639.55 226.15 639.08 224.46 638.67 222.76 643.82 221.25 648.96 219.73 654.08 218.16L654.08 218.16ZM736.92 186.82C736.35 184.72 735.51 182.76 734.69 180.83 733.85 178.9 732.96 177 732.01 175.13 728.98 169.16 725.32 163.48 720.97 158.4 724.58 161.46 727.88 164.9 730.85 168.58 735.61 174.48 739.6 180.97 743.08 187.7 741.2 188.24 739.33 188.79 737.46 189.34 737.32 188.48 737.14 187.64 736.92 186.82L736.92 186.82ZM622.25 227.53L623.55 227.15C627.77 225.92 631.99 224.7 636.21 223.47 636.66 225.66 637.16 227.83 637.73 229.99L638.09 231.35 639.48 230.95C655.48 226.32 671.42 221.48 687.34 216.59L711.17 209.09 723.06 205.28 729.02 203.33C731.06 202.66 733.28 201.55 734.89 199.8 736.55 198.06 737.47 195.69 737.65 193.42 737.69 192.95 737.69 192.49 737.69 192.03 740.19 191.21 742.68 190.4 745.18 189.58L746.57 189.12 745.88 187.88C741.95 180.69 737.43 173.79 732.06 167.57 727.74 162.57 722.8 158.04 717.3 154.39 711.43 148.59 704.3 143.89 696.31 141.78 688.22 139.57 679.57 140.12 671.65 142.64 679.59 140.2 688.24 139.65 696.24 142 702.92 143.92 708.91 147.64 713.96 152.33 713.72 152.19 713.49 152.05 713.25 151.91 706.09 147.96 698.08 145.52 689.92 145.11 681.76 144.64 673.6 146.02 665.85 148.46 673.63 146.12 681.79 144.85 689.9 145.43 697.98 145.99 705.96 148.37 712.87 152.57 714.23 153.38 715.54 154.26 716.82 155.17 716.85 155.2 716.88 155.23 716.9 155.25 722.53 161.32 726.93 168.43 730.4 175.91 731.27 177.78 732.08 179.68 732.83 181.6 733.58 183.53 734.31 185.44 734.76 187.38 734.97 188.23 735.12 189.11 735.21 189.99 728.11 192.05 721.01 194.13 713.95 196.3L683.48 205.5 653.14 215.1C648.1 216.67 643.08 218.28 638.06 219.92 636.94 214.69 636.15 209.4 635.8 204.06 635.27 195.53 635.78 186.87 637.91 178.55 639.99 170.25 643.93 162.31 649.82 155.99 649.83 155.99 649.84 155.98 649.84 155.98 654.79 152.75 660.21 150.24 665.85 148.46 660.49 150.08 655.31 152.36 650.52 155.29 656.29 149.31 663.75 145.11 671.65 142.64 663.39 145.13 655.65 149.56 649.64 155.82 649.64 155.83 649.64 155.83 649.63 155.83 647.8 156.99 646.03 158.25 644.34 159.61 637.96 164.69 632.79 171.19 628.93 178.38 625.09 185.6 622.69 193.56 621.61 201.68 620.53 209.82 620.75 218.11 622.04 226.23L622.25 227.53Z" fill="#FFFFFF"/><path d="M623.15 201.86C623.94 193.87 626.04 185.97 629.59 178.72 633.13 171.46 638.3 165.01 644.54 159.86 645.97 158.67 647.46 157.57 649 156.53 643.31 162.66 639.36 170.28 636.99 178.3 634.54 186.66 633.7 195.44 633.94 204.15 634.1 209.69 634.74 215.22 635.72 220.68 631.86 221.94 628.01 223.21 624.15 224.47 622.83 217.03 622.4 209.41 623.15 201.86L623.15 201.86ZM654.08 218.16L684.55 208.96 714.9 199.37C721.69 197.25 728.46 195.05 735.22 192.84 735.02 194.81 734.34 196.63 732.96 197.95 731.67 199.22 730.04 200.01 728.12 200.57L722.15 202.32 710.18 205.88 686.27 213.14C670.82 217.93 655.4 222.79 640.03 227.84 639.55 226.15 639.08 224.46 638.67 222.76 643.82 221.25 648.96 219.73 654.08 218.16L654.08 218.16ZM736.92 186.82C736.35 184.72 735.51 182.76 734.69 180.83 733.85 178.9 732.96 177 732.01 175.13 728.98 169.16 725.32 163.48 720.97 158.4 724.58 161.46 727.88 164.9 730.85 168.58 735.61 174.48 739.6 180.97 743.08 187.7 741.2 188.24 739.33 188.79 737.46 189.34 737.32 188.48 737.14 187.64 736.92 186.82L736.92 186.82ZM622.25 227.53L623.55 227.15C627.77 225.92 631.99 224.7 636.21 223.47 636.66 225.66 637.16 227.83 637.73 229.99L638.09 231.35 639.48 230.95C655.48 226.32 671.42 221.48 687.34 216.59L711.17 209.09 723.06 205.28 729.02 203.33C731.06 202.66 733.28 201.55 734.89 199.8 736.55 198.06 737.47 195.69 737.65 193.42 737.69 192.95 737.69 192.49 737.69 192.03 740.19 191.21 742.68 190.4 745.18 189.58L746.57 189.12 745.88 187.88C741.95 180.69 737.43 173.79 732.06 167.57 727.74 162.57 722.8 158.04 717.3 154.39 711.43 148.59 704.3 143.89 696.31 141.78 688.22 139.57 679.57 140.12 671.65 142.64 679.59 140.2 688.24 139.65 696.24 142 702.92 143.92 708.91 147.64 713.96 152.33 713.72 152.19 713.49 152.05 713.25 151.91 706.09 147.96 698.08 145.52 689.92 145.11 681.76 144.64 673.6 146.02 665.85 148.46 673.63 146.12 681.79 144.85 689.9 145.43 697.98 145.99 705.96 148.37 712.87 152.57 714.23 153.38 715.54 154.26 716.82 155.17 716.85 155.2 716.88 155.23 716.9 155.25 722.53 161.32 726.93 168.43 730.4 175.91 731.27 177.78 732.08 179.68 732.83 181.6 733.58 183.53 734.31 185.44 734.76 187.38 734.97 188.23 735.12 189.11 735.21 189.99 728.11 192.05 721.01 194.13 713.95 196.3L683.48 205.5 653.14 215.1C648.1 216.67 643.08 218.28 638.06 219.92 636.94 214.69 636.15 209.4 635.8 204.06 635.27 195.53 635.78 186.87 637.91 178.55 639.99 170.25 643.93 162.31 649.82 155.99 649.83 155.99 649.84 155.98 649.84 155.98 654.79 152.75 660.21 150.24 665.85 148.46 660.49 150.08 655.31 152.36 650.52 155.29 656.29 149.31 663.75 145.11 671.65 142.64 663.39 145.13 655.65 149.56 649.64 155.82 649.64 155.83 649.64 155.83 649.63 155.83 647.8 156.99 646.03 158.25 644.34 159.61 637.96 164.69 632.79 171.19 628.93 178.38 625.09 185.6 622.69 193.56 621.61 201.68 620.53 209.82 620.75 218.11 622.04 226.23L622.25 227.53 622.25 227.53Z" stroke="#1A1918" stroke-width="3"/><path d="M538.87 187.75C535.38 182.86 531.41 178.36 527.2 174.11 527.15 165.09 527.08 156.07 526.97 147.04L538.59 146.92 538.87 187.75ZM499.48 153.82C500.68 154.7 501.91 155.55 503.1 156.44 509.42 161.2 515.57 166.18 521.39 171.53 522.32 172.38 523.22 173.26 524.13 174.13 524.09 181.64 524.06 189.15 524.04 196.66L523.96 223.2 499.48 153.82ZM529.14 238.92L541.92 293.38C540.92 298.57 539.96 303.77 539 308.97 537.27 308.8 535.48 308.37 534.05 307.51 530.86 305.73 529.22 301.96 528.41 298.05 527.61 294.1 527.46 289.91 527.4 285.71L527.41 273.02 527.46 247.57 527.41 233.95 529.14 238.92ZM545.47 308.78C543.55 309 541.59 309.09 539.65 309.01 540.42 303.83 541.19 298.64 541.93 293.45L545.53 308.77C545.51 308.78 545.49 308.78 545.47 308.78L545.47 308.78ZM558.47 308.19C561.63 306.71 564.55 304.89 567.41 303.03L567.63 325.27C562.58 327.55 557.41 329.58 552.1 331.09 551.89 331.15 551.68 331.19 551.48 331.25L546.84 311.76C550.87 311.16 554.82 309.93 558.47 308.19L558.47 308.19ZM551.29 333.37C551.23 333.37 551.17 333.37 551.11 333.37 551.17 333.35 551.22 333.34 551.28 333.33L551.29 333.37ZM535.96 333.75C535.97 333.66 535.99 333.57 536 333.48 536.59 333.53 537.18 333.6 537.77 333.64 537.17 333.69 536.57 333.73 535.96 333.75L535.96 333.75ZM539.26 312.21C541.46 312.3 543.66 312.19 545.85 311.92 545.98 311.9 546.11 311.87 546.25 311.85L550.83 331.41C548.39 332.06 545.92 332.62 543.42 333.02 541 332.83 538.59 332.56 536.19 332.2 537.19 325.54 538.19 318.87 539.19 312.2 539.21 312.2 539.24 312.21 539.26 312.21L539.26 312.21ZM524.05 329.45C519.65 328.04 515.43 326.06 511.79 323.41 508.15 320.76 505.15 317.38 503.14 313.46 499.1 305.54 498.93 296.24 498.97 286.91L498.83 258.68C498.7 239.86 498.47 221.04 498.09 202.22 497.82 185.45 497.39 168.68 496.83 151.9 497.7 152.53 498.57 153.16 499.44 153.8L523.95 224.04 523.87 247.57 523.92 273.02 523.98 285.77C524.08 290.04 524.25 294.38 525.16 298.74 525.64 300.92 526.31 303.11 527.46 305.18 528.59 307.23 530.29 309.12 532.43 310.32 534.31 311.4 536.33 311.9 538.41 312.12 537.19 318.74 535.97 325.36 534.76 331.98 531.12 331.38 527.54 330.55 524.05 329.45L524.05 329.45ZM495.23 147.52L495.91 147.52 496.22 146.17C499.1 133.75 501.85 121.3 504.52 108.83 505.37 104.79 506.22 100.74 507.05 96.69 511.2 88.69 514.09 80.12 516.05 71.39 517.93 62.99 518.95 54.43 519.27 45.84L537.99 45.87 538.08 129.1 538.08 130.79 539.76 130.78 568.71 130.72 566.85 143.38 539.81 142.43 538.55 142.39 538.56 143.63 538.57 144.61 525.66 144.47 524.39 144.45 524.37 145.76C524.26 154.22 524.19 162.67 524.14 171.13 523.72 170.73 523.31 170.31 522.89 169.91 517.07 164.44 510.92 159.33 504.6 154.46 502.42 152.79 500.19 151.17 497.97 149.55L496.64 145.76 497.95 149.54C497.54 149.23 497.14 148.92 496.72 148.63 496.69 147.67 496.67 146.72 496.64 145.76 496.6 146.67 496.58 147.59 496.55 148.5 496.11 148.18 495.68 147.84 495.23 147.52L495.23 147.52ZM475.27 143.98C469.39 143.99 463.51 144.05 457.63 144.14 457.57 137.98 457.46 131.82 457.35 125.67 462.15 125.57 466.95 125.46 471.75 125.32 469.17 126.27 466.53 127.05 463.84 127.61L459.92 128.43 463.4 130.43C470.84 134.69 478.15 139.22 485.32 143.96 481.97 143.96 478.62 143.96 475.27 143.98L475.27 143.98ZM489.48 118.85C494.97 114.42 499.58 109.02 503.36 103.12 502.91 104.83 502.47 106.54 502.02 108.25 498.96 120.14 495.99 132.06 493.12 144 492.14 143.99 491.15 143.99 490.16 143.98 482.97 138.99 475.62 134.24 468.1 129.73 472.21 128.62 476.2 127.05 479.98 125.07 485.95 124.88 491.93 124.7 497.9 124.4 492.69 124.14 487.47 123.98 482.26 123.81 484.79 122.34 487.21 120.7 489.48 118.85L489.48 118.85ZM567.01 143.39L569.38 130.72 569.53 130.72 569.32 143.47 567.01 143.39ZM589.35 130.67L589.38 144.18 570.86 143.52 570.65 130.72 589.35 130.67ZM570.6 127.49L570.55 124.4 569.64 124.33 569.18 127.48 541.45 127.42 541.54 44.1 541.54 42.32 539.76 42.32 517.61 42.35 515.91 42.36 515.87 44.06C515.66 53 514.67 61.94 512.75 70.66 512.15 73.39 511.42 76.09 510.62 78.77 511.1 76.29 511.59 73.81 512.03 71.32 510.41 76.86 508.91 82.44 507.39 88.01 506.32 90.65 505.17 93.25 503.85 95.77 499.75 103.63 494.32 110.83 487.48 116.4 483.96 119.29 480.07 121.7 475.94 123.6 469.3 123.39 462.67 123.25 456.04 123.11L454.77 123.08 454.75 124.4C454.62 131.52 454.48 138.64 454.43 145.76L454.42 147.35 456.04 147.37C462.45 147.48 468.86 147.53 475.27 147.54 480.38 147.58 485.5 147.56 490.61 147.54 492.57 148.89 494.52 150.25 496.46 151.64 495.89 168.5 495.45 185.36 495.18 202.22 494.8 221.04 494.57 239.86 494.44 258.68L494.3 286.92C494.32 291.62 494.31 296.46 495.05 301.3 495.73 306.14 497.18 311.02 499.75 315.35 502.27 319.69 505.92 323.34 510.1 325.91 514.28 328.52 518.86 330.21 523.49 331.4 527.13 332.32 530.81 332.93 534.51 333.33 534.44 333.71 534.37 334.07 534.3 334.44L534.14 335.32 535.06 335.34C539.46 335.41 543.86 334.92 548.16 334.05 549.35 334.06 550.53 334.06 551.72 334.06L551.72 334.06 552.15 334.06 552.05 333.64 551.93 333.17C552.16 333.12 552.4 333.07 552.62 333.01 558.34 331.51 563.89 329.44 569.29 327.1L569.97 326.8 569.98 326.03 570.24 300.4 570.26 297.77 568.03 299.2C564.46 301.48 560.89 303.67 557.17 305.4 553.64 307.05 549.93 308.18 546.1 308.68L529.46 238.83 529.46 238.82 529.46 238.81 527.41 232.99 527.29 196.66C527.27 190.17 527.24 183.68 527.21 177.18 530.85 180.88 534.3 184.75 537.34 188.92 537.87 189.65 538.39 190.4 538.89 191.15L539.03 211.97 539.76 280.32 540.49 211.97 540.62 193.88C541.6 195.54 542.5 197.24 543.28 199.01 544.86 202.56 546.05 206.33 546.89 210.17 548.56 217.85 548.96 225.81 548.64 233.71 548.32 241.62 547.27 249.5 545.75 257.28 544.22 265.06 542.29 272.79 539.76 280.32 545.09 265.36 548.67 249.69 549.71 233.76 550.18 225.8 549.93 217.74 548.38 209.85 547.6 205.91 546.46 202.04 544.89 198.3 543.73 195.53 542.26 192.89 540.64 190.38L540.94 146.89 566.37 146.61 566.26 147.35 566.4 146.61 570.09 146.57 570.91 146.56 570.91 146.33 590.85 147.29 592.45 147.37 592.45 145.76 592.49 129.1 592.49 127.54 590.92 127.53 570.6 127.49Z" fill="#FFFFFF"/><path d="M538.87 187.75C535.38 182.86 531.41 178.36 527.2 174.11 527.15 165.09 527.08 156.07 526.97 147.04L538.59 146.92 538.87 187.75 538.87 187.75ZM499.48 153.82C500.68 154.7 501.91 155.55 503.1 156.44 509.42 161.2 515.57 166.18 521.39 171.53 522.32 172.38 523.22 173.26 524.13 174.13 524.09 181.64 524.06 189.15 524.04 196.66L523.96 223.2 499.48 153.82 499.48 153.82ZM529.14 238.92L541.92 293.38C540.92 298.57 539.96 303.77 539 308.97 537.27 308.8 535.48 308.37 534.05 307.51 530.86 305.73 529.22 301.96 528.41 298.05 527.61 294.1 527.46 289.91 527.4 285.71L527.41 273.02 527.46 247.57 527.41 233.95 529.14 238.92 529.14 238.92ZM545.47 308.78C543.55 309 541.59 309.09 539.65 309.01 540.42 303.83 541.19 298.64 541.93 293.45L545.53 308.77C545.51 308.78 545.49 308.78 545.47 308.78L545.47 308.78ZM558.47 308.19C561.63 306.71 564.55 304.89 567.41 303.03L567.63 325.27C562.58 327.55 557.41 329.58 552.1 331.09 551.89 331.15 551.68 331.19 551.48 331.25L546.84 311.76C550.87 311.16 554.82 309.93 558.47 308.19L558.47 308.19ZM551.29 333.37C551.23 333.37 551.17 333.37 551.11 333.37 551.17 333.35 551.22 333.34 551.28 333.33L551.29 333.37 551.29 333.37ZM535.96 333.75C535.97 333.66 535.99 333.57 536 333.48 536.59 333.53 537.18 333.6 537.77 333.64 537.17 333.69 536.57 333.73 535.96 333.75L535.96 333.75ZM539.26 312.21C541.46 312.3 543.66 312.19 545.85 311.92 545.98 311.9 546.11 311.87 546.25 311.85L550.83 331.41C548.39 332.06 545.92 332.62 543.42 333.02 541 332.83 538.59 332.56 536.19 332.2 537.19 325.54 538.19 318.87 539.19 312.2 539.21 312.2 539.24 312.21 539.26 312.21L539.26 312.21ZM524.05 329.45C519.65 328.04 515.43 326.06 511.79 323.41 508.15 320.76 505.15 317.38 503.14 313.46 499.1 305.54 498.93 296.24 498.97 286.91L498.83 258.68C498.7 239.86 498.47 221.04 498.09 202.22 497.82 185.45 497.39 168.68 496.83 151.9 497.7 152.53 498.57 153.16 499.44 153.8L523.95 224.04 523.87 247.57 523.92 273.02 523.98 285.77C524.08 290.04 524.25 294.38 525.16 298.74 525.64 300.92 526.31 303.11 527.46 305.18 528.59 307.23 530.29 309.12 532.43 310.32 534.31 311.4 536.33 311.9 538.41 312.12 537.19 318.74 535.97 325.36 534.76 331.98 531.12 331.38 527.54 330.55 524.05 329.45L524.05 329.45ZM495.23 147.52L495.91 147.52 496.22 146.17C499.1 133.75 501.85 121.3 504.52 108.83 505.37 104.79 506.22 100.74 507.05 96.69 511.2 88.69 514.09 80.12 516.05 71.39 517.93 62.99 518.95 54.43 519.27 45.84L537.99 45.87 538.08 129.1 538.08 130.79 539.76 130.78 568.71 130.72 566.85 143.38 539.81 142.43 538.55 142.39 538.56 143.63 538.57 144.61 525.66 144.47 524.39 144.45 524.37 145.76C524.26 154.22 524.19 162.67 524.14 171.13 523.72 170.73 523.31 170.31 522.89 169.91 517.07 164.44 510.92 159.33 504.6 154.46 502.42 152.79 500.19 151.17 497.97 149.55L496.64 145.76 497.95 149.54C497.54 149.23 497.14 148.92 496.72 148.63 496.69 147.67 496.67 146.72 496.64 145.76 496.6 146.67 496.58 147.59 496.55 148.5 496.11 148.18 495.68 147.84 495.23 147.52L495.23 147.52ZM475.27 143.98C469.39 143.99 463.51 144.05 457.63 144.14 457.57 137.98 457.46 131.82 457.35 125.67 462.15 125.57 466.95 125.46 471.75 125.32 469.17 126.27 466.53 127.05 463.84 127.61L459.92 128.43 463.4 130.43C470.84 134.69 478.15 139.22 485.32 143.96 481.97 143.96 478.62 143.96 475.27 143.98L475.27 143.98ZM489.48 118.85C494.97 114.42 499.58 109.02 503.36 103.12 502.91 104.83 502.47 106.54 502.02 108.25 498.96 120.14 495.99 132.06 493.12 144 492.14 143.99 491.15 143.99 490.16 143.98 482.97 138.99 475.62 134.24 468.1 129.73 472.21 128.62 476.2 127.05 479.98 125.07 485.95 124.88 491.93 124.7 497.9 124.4 492.69 124.14 487.47 123.98 482.26 123.81 484.79 122.34 487.21 120.7 489.48 118.85L489.48 118.85ZM567.01 143.39L569.38 130.72 569.53 130.72 569.32 143.47 567.01 143.39 567.01 143.39ZM589.35 130.67L589.38 144.18 570.86 143.52 570.65 130.72 589.35 130.67 589.35 130.67ZM570.6 127.49L570.55 124.4 569.64 124.33 569.18 127.48 541.45 127.42 541.54 44.1 541.54 42.32 539.76 42.32 517.61 42.35 515.91 42.36 515.87 44.06C515.66 53 514.67 61.94 512.75 70.66 512.15 73.39 511.42 76.09 510.62 78.77 511.1 76.29 511.59 73.81 512.03 71.32 510.41 76.86 508.91 82.44 507.39 88.01 506.32 90.65 505.17 93.25 503.85 95.77 499.75 103.63 494.32 110.83 487.48 116.4 483.96 119.29 480.07 121.7 475.94 123.6 469.3 123.39 462.67 123.25 456.04 123.11L454.77 123.08 454.75 124.4C454.62 131.52 454.48 138.64 454.43 145.76L454.42 147.35 456.04 147.37C462.45 147.48 468.86 147.53 475.27 147.54 480.38 147.58 485.5 147.56 490.61 147.54 492.57 148.89 494.52 150.25 496.46 151.64 495.89 168.5 495.45 185.36 495.18 202.22 494.8 221.04 494.57 239.86 494.44 258.68L494.3 286.92C494.32 291.62 494.31 296.46 495.05 301.3 495.73 306.14 497.18 311.02 499.75 315.35 502.27 319.69 505.92 323.34 510.1 325.91 514.28 328.52 518.86 330.21 523.49 331.4 527.13 332.32 530.81 332.93 534.51 333.33 534.44 333.71 534.37 334.07 534.3 334.44L534.14 335.32 535.06 335.34C539.46 335.41 543.86 334.92 548.16 334.05 549.35 334.06 550.53 334.06 551.72 334.06L551.72 334.06 552.15 334.06 552.05 333.64 551.93 333.17C552.16 333.12 552.4 333.07 552.62 333.01 558.34 331.51 563.89 329.44 569.29 327.1L569.97 326.8 569.98 326.03 570.24 300.4 570.26 297.77 568.03 299.2C564.46 301.48 560.89 303.67 557.17 305.4 553.64 307.05 549.93 308.18 546.1 308.68L529.46 238.83 529.46 238.82 529.46 238.81 527.41 232.99 527.29 196.66C527.27 190.17 527.24 183.68 527.21 177.18 530.85 180.88 534.3 184.75 537.34 188.92 537.87 189.65 538.39 190.4 538.89 191.15L539.03 211.97 539.76 280.32 540.49 211.97 540.62 193.88C541.6 195.54 542.5 197.24 543.28 199.01 544.86 202.56 546.05 206.33 546.89 210.17 548.56 217.85 548.96 225.81 548.64 233.71 548.32 241.62 547.27 249.5 545.75 257.28 544.22 265.06 542.29 272.79 539.76 280.32 545.09 265.36 548.67 249.69 549.71 233.76 550.18 225.8 549.93 217.74 548.38 209.85 547.6 205.91 546.46 202.04 544.89 198.3 543.73 195.53 542.26 192.89 540.64 190.38L540.94 146.89 566.37 146.61 566.26 147.35 566.4 146.61 570.09 146.57 570.91 146.56 570.91 146.33 590.85 147.29 592.45 147.37 592.45 145.76 592.49 129.1 592.49 127.54 590.92 127.53 570.6 127.49 570.6 127.49Z" stroke="#1A1918" stroke-width="3"/><path d="M809.68 43.55L802.35 43.55 802.35 65.18C802.35 71.56 799.92 74.21 795.95 74.21 792.19 74.21 789.66 71.46 789.66 65.18L789.66 43.55 782.33 43.55 782.33 64.58C782.33 75.09 787.19 79.88 795.76 79.88 804.38 79.88 809.68 75 809.68 64.53L809.68 43.55Z" fill="#E05430"/><path d="M842.69 43.6L838.37 57.04C837.09 61.32 835.95 65.65 835.06 69.65L834.91 69.65C834.06 65.55 832.97 61.37 831.74 57.04L827.62 43.6 818.56 43.6 815.98 79.37 822.67 79.37 823.41 65.6C823.66 61.18 823.91 55.88 824.01 51.37L824.16 51.37C825.05 55.74 826.24 60.58 827.48 64.62L831.69 78.86 837.24 78.86 841.89 64.39C843.18 60.39 844.57 55.64 845.66 51.37L845.81 51.37C845.76 54.99 846.01 60.76 846.2 65.46L846.9 79.37 853.88 79.37 851.7 43.6 842.69 43.6Z" fill="#E05430"/><path d="M867.62 48.85C868.21 48.67 869.35 48.57 870.98 48.57 873.66 48.57 877.33 49.46 877.33 54.06 877.33 57.46 874.8 59.74 870.64 59.74L867.62 59.74 867.62 48.85ZM867.62 64.86L870.09 64.86C873.56 64.86 875.1 66.3 876.09 70.9 876.98 75.23 877.92 78.35 878.47 79.37L886 79.37C885.26 78.02 884.26 73.74 883.17 69.51 882.28 65.88 880.8 63.46 878.12 62.48L878.12 62.34C881.69 61.04 884.66 57.83 884.66 53.46 884.66 43.87 874.95 43.32 870.14 43.32 866.43 43.32 862.86 43.64 860.33 44.06L860.33 79.37 867.62 79.37 867.62 64.86Z" fill="#E05430"/><path d="M792.14 121.93C789.13 121.93 787.3 119.46 787.3 116.64 787.3 113.99 788.9 111.66 791.58 110.73 794.67 111.7 797.02 113.77 797.02 117.03 797.02 119.63 795.28 121.93 792.14 121.93M792.23 96.4C795.19 96.4 796.37 98.7 796.37 100.99 796.37 103.24 794.72 105.31 792.75 106.06 789.98 105.09 788.01 103.32 788.01 100.77 788.01 98.65 789.18 96.4 792.23 96.4M797.63 108L797.63 107.91C801.24 106.06 802.84 103.1 802.84 100.41 802.84 96.23 799.51 92.04 792.47 92.04 786.32 92.04 781.48 95.57 781.48 101.08 781.48 103.9 783.22 106.67 786.51 108.39L786.51 108.53C782.94 110.2 780.36 113.16 780.36 117.25 780.36 122.01 784.39 126.38 791.95 126.38 798.99 126.38 803.97 122.46 803.97 116.5 803.97 112.36 801.11 109.5 797.63 108" fill="#1A1918"/><path d="M816.74 120.38L819.7 117.65C824.86 112.76 829.14 107.91 829.14 102 829.14 96.58 825.66 92.04 818.05 92.04 813.97 92.04 810.31 93.45 808.1 95.04L810.03 99.71C811.67 98.56 814.06 97.28 816.65 97.28 820.54 97.28 822.19 99.71 822.19 102.62 822.19 107.12 818.24 111.39 811.53 117.91L807.59 121.88 807.59 125.89 829.79 125.89 829.79 120.47 816.74 120.47 816.74 120.38Z" fill="#1A1918"/><path d="M836.37 96.71L837.87 101.38 843.97 98.39 844.07 98.39 844.07 125.89 850.82 125.89 850.82 92.57 845 92.57 836.37 96.71Z" fill="#1A1918"/><path d="M872.7 121.93C869.7 121.93 867.87 119.46 867.87 116.64 867.87 113.99 869.47 111.66 872.14 110.73 875.24 111.7 877.58 113.77 877.58 117.03 877.58 119.63 875.85 121.93 872.7 121.93M872.8 96.4C875.75 96.4 876.93 98.7 876.93 100.99 876.93 103.24 875.28 105.31 873.31 106.06 870.54 105.09 868.57 103.32 868.57 100.77 868.57 98.65 869.75 96.4 872.8 96.4M878.19 108L878.19 107.91C881.81 106.06 883.41 103.1 883.41 100.41 883.41 96.23 880.07 92.04 873.03 92.04 866.88 92.04 862.05 95.57 862.05 101.08 862.05 103.9 863.78 106.67 867.07 108.39L867.07 108.53C863.5 110.2 860.92 113.16 860.92 117.25 860.92 122.01 864.96 126.38 872.51 126.38 879.56 126.38 884.53 122.46 884.53 116.5 884.53 112.36 881.67 109.5 878.19 108" fill="#1A1918"/><mask fill="white"><use xlink:href="#path-1"/></mask><path d="M56.04 54.56L64.32 54.56 64.32 96.73 56.04 96.73 56.04 54.56ZM60.22 49.1C57.25 49.1 54.84 46.69 54.84 43.8 54.84 40.82 57.25 38.41 60.22 38.41 63.11 38.41 65.52 40.82 65.52 43.8 65.52 46.69 63.11 49.1 60.22 49.1L60.22 49.1Z" fill="#1A1918" mask="url(#mask-2)"/><path d="M125.04 96.73L125.04 72.87C125.04 64.36 121.83 61.31 116.37 61.31 110.83 61.31 107.69 65.24 107.69 72.07L107.69 96.73 99.42 96.73 99.42 54.56 107.69 54.56 107.69 58.58C109.78 55.52 113.96 53.68 118.3 53.68 128.1 53.68 133.32 60.1 133.32 72.55L133.32 96.73 125.04 96.73Z" fill="#1A1918" mask="url(#mask-2)"/><path d="M181.35 97.61C175.65 97.61 169.47 95.36 165.21 92.23L168.98 85.97C172.92 88.7 177.34 90.14 181.27 90.14 186.5 90.14 188.99 88.46 188.99 85.48 188.99 82.27 185.29 80.74 179.19 78.42 170.11 74.88 166.82 71.83 166.82 65.16 166.82 57.61 172.76 53.68 181.19 53.68 186.5 53.68 191.72 55.6 195.49 58.33L191.88 64.68C188.42 62.27 184.97 61.07 180.95 61.07 176.94 61.07 175.17 62.67 175.17 64.92 175.17 67.01 176.62 68.54 182.96 71.03 192.36 74.64 197.18 77.21 197.18 85.16 197.18 94.48 189.63 97.61 181.35 97.61" fill="#1A1918" mask="url(#mask-2)"/><path d="M249.63 95.68C247.62 96.81 244.81 97.61 241.52 97.61 235.65 97.61 232.04 94 232.04 86.45L232.04 62.11 226.02 62.11 226.02 54.56 232.04 54.56 232.04 42.51 240.15 38.17 240.15 54.56 250.6 54.56 250.6 62.11 240.15 62.11 240.15 85C240.15 88.94 241.44 90.06 244.49 90.06 246.66 90.06 249.07 89.26 250.6 88.37L249.63 95.68Z" fill="#1A1918" mask="url(#mask-2)"/><path d="M284.74 54.56L293.01 54.56 293.01 96.73 284.74 96.73 284.74 54.56ZM288.91 49.1C285.94 49.1 283.53 46.69 283.53 43.8 283.53 40.82 285.94 38.41 288.91 38.41 291.8 38.41 294.21 40.82 294.21 43.8 294.21 46.69 291.8 49.1 288.91 49.1L288.91 49.1Z" fill="#1A1918" mask="url(#mask-2)"/><path d="M348.27 95.68C346.27 96.81 343.45 97.61 340.16 97.61 334.3 97.61 330.68 94 330.68 86.45L330.68 62.11 324.66 62.11 324.66 54.56 330.68 54.56 330.68 42.51 338.79 38.17 338.79 54.56 349.24 54.56 349.24 62.11 338.79 62.11 338.79 85C338.79 88.94 340.08 90.06 343.13 90.06 345.3 90.06 347.71 89.26 349.24 88.37L348.27 95.68Z" fill="#1A1918" mask="url(#mask-2)"/><path d="M407.63 96.73L407.63 92.71C405.54 95.76 401.37 97.61 397.03 97.61 387.23 97.61 382.01 91.19 382.01 78.74L382.01 54.56 390.28 54.56 390.28 78.42C390.28 86.93 393.49 89.98 398.96 89.98 404.5 89.98 407.63 86.05 407.63 79.22L407.63 54.56 415.9 54.56 415.9 96.73 407.63 96.73Z" fill="#1A1918" mask="url(#mask-2)"/><path d="M470.77 95.68C468.76 96.81 465.95 97.61 462.66 97.61 456.79 97.61 453.18 94 453.18 86.45L453.18 62.11 447.15 62.11 447.15 54.56 453.18 54.56 453.18 42.51 461.29 38.17 461.29 54.56 471.73 54.56 471.73 62.11 461.29 62.11 461.29 85C461.29 88.94 462.58 90.06 465.63 90.06 467.8 90.06 470.21 89.26 471.73 88.37L470.77 95.68Z" fill="#1A1918" mask="url(#mask-2)"/></g></g></svg>
