<svg xmlns="http://www.w3.org/2000/svg" width="477" height="54" viewBox="0 0 477 54" version="1.1"><title>pratiques picturales</title><path d="M8.6 13.5C7.3 13.7 5.9 13.8 4.6 13.8 2.9 13.8 1.7 13.7 0.2 13.5 0.7 17.5 0.6 23.1 0.6 30.2 0.6 37.5 0.5 44.6 0 53.3 1.2 53.1 2.8 53 4.2 53 5.7 53 7.6 53.1 9 53.3 8.6 49.1 8.5 45 8.5 37 10.8 39.4 12.7 40.3 16 40.3 24 40.3 27.5 33.9 27.5 26.7 27.5 18.9 23.6 13.1 16 13.1 11.7 13.1 9.8 15.3 8.3 17.4L8.6 13.5ZM8.5 26.9C8.5 22.6 9.4 16.7 13.6 16.7 18.1 16.7 18.6 22.9 18.6 26.2 18.6 32.1 17.4 36.5 13.5 36.5 9 36.5 8.5 30.3 8.5 26.9L8.5 26.9ZM48.5 21.4C48.4 17.6 48.7 14.9 48.9 13.2 46.3 13 43.5 12.9 41 19.1L41.3 13.5C40.7 13.6 39.1 13.8 37.2 13.8 35.2 13.8 33.5 13.6 32.8 13.5 33.2 18.4 33.2 22.5 33.2 28.1 33.2 34.9 33.1 36.3 32.9 39.6 33.5 39.5 35.2 39.3 37 39.3 38.6 39.3 40.5 39.4 41.9 39.6 41.4 34.9 41.3 29.9 41.3 28.2 41.3 24.8 41.3 20.7 45 20.7 46.1 20.7 47 21.1 47.9 21.8L48.5 21.4ZM53.4 20C54.4 19.1 56.4 17.2 60 17.2 63.1 17.2 64.8 18.8 64.8 21.8 64.8 23.2 64.7 23.4 61 24.5 53.9 26.7 50.4 27.8 50.4 33.3 50.4 36.4 52 40.4 57.9 40.4 62.3 40.4 64.1 38.2 65.2 36.8 65.6 37.8 66.6 40.2 70.2 40.2 72.6 40.2 74.8 39.1 75.9 38.4 75.8 37.7 75.8 37 75.9 36.3 75.5 36.7 74.7 36.9 74.1 36.9 72.3 36.9 72.3 35.1 72.3 33.2 72.3 27.9 72.6 24.3 72.6 21.8 72.6 19.6 72.2 17.3 70.4 15.7 68.2 13.8 65.2 13.1 62.4 13.1 59.7 13.1 56 13.8 52.4 16.6 52.9 17.6 53.2 18.9 53.3 20L53.4 20ZM64.7 26.2C64.7 31.3 64.7 32.8 64.4 33.9 64 35.4 62.9 36.2 61.4 36.2 58.6 36.2 58.2 33.9 58.2 32.3 58.2 28.6 59.6 27.3 64.7 26.2L64.7 26.2ZM88.4 4C86.9 4.9 84.2 6.5 80 7.9 80.1 10 80.2 11.6 80.2 13.9 79.4 13.9 78.2 13.8 76.8 13.7 77 14.2 77.1 14.6 77.1 15.3 77.1 16.1 77 16.5 76.8 17.1 77.9 17 79.2 16.8 80.2 16.8 80.2 21.2 80 28.2 80 32.6 80 35.3 80.3 36.9 81.7 38.4 83 39.7 84.7 40.4 87 40.4 88.9 40.4 90.5 39.9 92.9 39.2 92.8 38.9 92.7 38.4 92.7 37.9 92.7 37.5 92.7 37 92.9 36.6 92.3 36.8 91.4 37 90.8 37 88.2 37 88.2 34.7 88.2 31.5 88.2 26.9 88.2 21.3 88.4 16.8 89.6 16.8 91.4 17 93 17.1 92.9 16.7 92.7 16.2 92.7 15.3 92.7 14.6 92.9 14.2 93 13.7 91.4 13.8 89.6 13.9 88.4 13.9 88.4 12.1 88.8 7.6 89 4.5L88.4 4ZM102 0C99.5 0 97.6 2 97.6 4.4 97.6 6.9 99.6 8.9 102 8.9 104.4 8.9 106.4 6.9 106.4 4.4 106.4 2 104.5 0 102 0L102 0ZM98.1 26.3C98.1 30.5 98 35.6 97.6 39.6 98.6 39.4 100.4 39.3 102 39.3 103.5 39.3 105.3 39.4 106.6 39.6 106.2 35.4 106.1 29.3 106.1 24.9 106.1 21.1 106.1 17.3 106.5 13.5 105 13.7 103.6 13.8 102.1 13.8 100.6 13.8 99 13.7 97.6 13.5 98 17.8 98.1 22.1 98.1 26.3L98.1 26.3ZM130.4 17.4C129.1 15.5 127.3 13.1 122.8 13.1 115.5 13.1 111.2 18.3 111.2 26.7 111.2 33 114.1 40.3 122.9 40.3 127.1 40.3 129 38.4 130.2 37L130.2 42.2C130.2 46.7 130.1 50.6 129.7 53.3 130.6 53.2 132.3 53 134.2 53 135.9 53 137.7 53.1 138.8 53.3 138.3 47.7 138.2 40.2 138.2 31.9 138.2 22.9 138.2 17.5 138.5 13.5 137.2 13.7 135.9 13.8 134.6 13.8 133.1 13.8 131.7 13.7 130.2 13.5L130.4 17.4ZM125.2 16.7C129.1 16.7 130.2 22 130.2 26.9 130.2 30.3 129.8 36.5 125.3 36.5 121.3 36.5 120.2 32 120.2 26.2 120.2 24.5 120.2 16.7 125.2 16.7L125.2 16.7ZM162 39.6C162.6 39.5 164.3 39.3 166.3 39.3 168.2 39.3 169.8 39.5 170.6 39.6 170.4 36.9 170.1 31.4 170.1 25.7 170.1 22.5 170.3 17 170.7 13.5 169.9 13.6 168.3 13.8 166.3 13.8 164.6 13.8 162.9 13.7 161.7 13.5 161.9 17.4 162 25.2 162 29.3 162 32 161.3 35.2 157.9 35.2 155.6 35.2 154.6 33.7 154.3 31.6 154.2 30.2 154.1 23.7 154.1 21.8 154.1 18.9 154.3 16.4 154.7 13.5 153.9 13.6 152.2 13.8 150.2 13.8 148.7 13.8 146.9 13.7 145.5 13.5 145.5 15.4 145.8 17.3 145.8 19.2 145.8 21.8 145.9 28.8 145.9 32.1 145.9 37.1 149.1 40.3 154.1 40.3 156.3 40.3 159.5 39.7 162.4 35.5L162 39.6ZM199.9 33C197.3 35.8 194.5 36 192.9 36 185.8 36 185.1 30.4 185.2 27.1 188.7 26.9 190.1 26.9 192.3 26.9 195.4 26.9 198.5 26.9 201.6 27.1 201.6 26.6 201.7 25.6 201.7 25 201.7 18.3 198.1 13.1 189.8 13.1 183 13.1 176.5 16.7 176.5 26.7 176.5 34.7 181.3 40.4 190.1 40.4 192 40.4 196.2 40.1 199.4 37.8 199.7 36.8 200 35.6 200.8 33.9L199.9 33ZM185.2 24C185.1 17.4 187.5 15.6 189.6 15.6 192.3 15.6 193.3 17.8 193.4 24L185.2 24ZM222.7 20.3C222.9 18 223.4 16.4 224 14.9 221.4 13.7 218.6 13 215.7 13 211.9 13 206 14.8 206 21.8 206 26.2 208.2 28.5 213.2 30.3 217.3 31.7 218.8 32.3 218.8 34.3 218.8 36.8 216.3 37.5 214.3 37.5 210.6 37.5 208.6 35 207.9 32.8L206.8 32.6C206.8 33.5 206.6 34.3 206.5 35.2 206.4 36.2 206.2 37.2 205.9 38.2 207.1 39 209.3 40.4 214.2 40.4 219.4 40.4 224.9 38.1 224.9 31 224.9 25.5 221.2 24 215.2 22.1 213.3 21.5 211.8 20.8 211.8 18.9 211.8 16.7 214.1 16 215.9 16 220.3 16 221.1 18.8 221.5 20.3L222.7 20.3ZM252 13.5C250.7 13.7 249.4 13.8 248 13.8 246.3 13.8 245.1 13.7 243.6 13.5 244.1 17.5 244.1 23.1 244.1 30.2 244.1 37.5 244 44.6 243.4 53.3 244.6 53.1 246.2 53 247.7 53 249.1 53 251.1 53.1 252.4 53.3 252 49.1 252 45 252 37 254.2 39.4 256.1 40.3 259.4 40.3 267.4 40.3 270.9 33.9 270.9 26.7 270.9 18.9 267.1 13.1 259.4 13.1 255.1 13.1 253.2 15.3 251.7 17.4L252 13.5ZM252 26.9C252 22.6 252.9 16.7 257 16.7 261.5 16.7 262 22.9 262 26.2 262 32.1 260.8 36.5 256.9 36.5 252.4 36.5 252 30.3 252 26.9L252 26.9ZM280.2 0C277.7 0 275.7 2 275.7 4.4 275.7 6.9 277.7 8.9 280.2 8.9 282.5 8.9 284.6 6.9 284.6 4.4 284.6 2 282.6 0 280.2 0L280.2 0ZM276.2 26.3C276.2 30.5 276.1 35.6 275.8 39.6 276.8 39.4 278.5 39.3 280.1 39.3 281.6 39.3 283.4 39.4 284.7 39.6 284.3 35.4 284.2 29.3 284.2 24.9 284.2 21.1 284.2 17.3 284.6 13.5 283.2 13.7 281.7 13.8 280.3 13.8 278.8 13.8 277.1 13.7 275.7 13.5 276.2 17.8 276.2 22.1 276.2 26.3L276.2 26.3ZM312.1 33.5C309.3 36 307.7 36.1 306.6 36.1 300.8 36.1 298.9 31.3 298.9 26.2 298.9 23.3 299.4 16.3 304.9 16.3 306.7 16.3 309.1 17.5 309.6 21.5L311.2 21.5C311.3 20.4 311.7 18.2 313.1 15.5 311.7 14.5 309.4 13 304.5 13 300.8 13 290 14.3 290 27 290 33.5 293.9 40.2 303.8 40.2 308.1 40.2 310.6 38.9 311.5 38.2 312.2 36.4 312.4 35.7 313.1 34.6L312.1 33.5ZM327 4C325.5 4.9 322.8 6.5 318.6 7.9 318.7 10 318.8 11.6 318.8 13.9 318 13.9 316.8 13.8 315.5 13.7 315.6 14.2 315.7 14.6 315.7 15.3 315.7 16.1 315.6 16.5 315.5 17.1 316.5 17 317.8 16.8 318.8 16.8 318.8 21.2 318.6 28.2 318.6 32.6 318.6 35.3 318.9 36.9 320.3 38.4 321.6 39.7 323.4 40.4 325.6 40.4 327.5 40.4 329.1 39.9 331.5 39.2 331.4 38.9 331.3 38.4 331.3 37.9 331.3 37.5 331.4 37 331.5 36.6 330.9 36.8 330 37 329.4 37 326.8 37 326.8 34.7 326.8 31.5 326.8 26.9 326.9 21.3 327 16.8 328.2 16.8 330 17 331.6 17.1 331.5 16.7 331.4 16.2 331.4 15.3 331.4 14.6 331.5 14.2 331.6 13.7 330 13.8 328.2 13.9 327 13.9 327 12.1 327.4 7.6 327.6 4.5L327 4ZM352.4 39.6C353 39.5 354.7 39.3 356.7 39.3 358.6 39.3 360.2 39.5 361 39.6 360.8 36.9 360.6 31.4 360.6 25.7 360.6 22.5 360.7 17 361.1 13.5 360.3 13.6 358.7 13.8 356.7 13.8 355 13.8 353.4 13.7 352.1 13.5 352.3 17.4 352.4 25.2 352.4 29.3 352.4 32 351.7 35.2 348.4 35.2 346 35.2 345 33.7 344.8 31.6 344.6 30.2 344.6 23.7 344.6 21.8 344.6 18.9 344.7 16.4 345.1 13.5 344.3 13.6 342.6 13.8 340.6 13.8 339.1 13.8 337.3 13.7 335.9 13.5 336 15.4 336.2 17.3 336.2 19.2 336.2 21.8 336.3 28.8 336.3 32.1 336.3 37.1 339.5 40.3 344.6 40.3 346.8 40.3 350 39.7 352.8 35.5L352.4 39.6ZM383.8 21.4C383.6 17.6 383.9 14.9 384.1 13.2 381.5 13 378.7 12.9 376.2 19.1L376.6 13.5C375.9 13.6 374.3 13.8 372.4 13.8 370.4 13.8 368.8 13.6 368 13.5 368.5 18.4 368.5 22.5 368.5 28.1 368.5 34.9 368.3 36.3 368.1 39.6 368.7 39.5 370.5 39.3 372.3 39.3 373.8 39.3 375.7 39.4 377.1 39.6 376.6 34.9 376.6 29.9 376.6 28.2 376.6 24.8 376.6 20.7 380.3 20.7 381.3 20.7 382.2 21.1 383.1 21.8L383.8 21.4ZM388.6 20C389.7 19.1 391.7 17.2 395.2 17.2 398.3 17.2 400 18.8 400 21.8 400 23.2 399.9 23.4 396.2 24.5 389.1 26.7 385.6 27.8 385.6 33.3 385.6 36.4 387.3 40.4 393.2 40.4 397.6 40.4 399.4 38.2 400.4 36.8 400.8 37.8 401.8 40.2 405.4 40.2 407.8 40.2 410.1 39.1 411.1 38.4 411 37.7 411 37 411.1 36.3 410.7 36.7 410 36.9 409.4 36.9 407.6 36.9 407.6 35.1 407.6 33.2 407.6 27.9 407.8 24.3 407.8 21.8 407.8 19.6 407.4 17.3 405.6 15.7 403.4 13.8 400.5 13.1 397.7 13.1 394.9 13.1 391.2 13.8 387.6 16.6 388.1 17.6 388.4 18.9 388.5 20L388.6 20ZM399.9 26.2C399.9 31.3 399.9 32.8 399.6 33.9 399.2 35.4 398.1 36.2 396.7 36.2 393.8 36.2 393.5 33.9 393.5 32.3 393.5 28.6 394.8 27.3 399.9 26.2L399.9 26.2ZM422.7 18.5C422.7 10.7 422.8 3.3 423.1 0.6 422.1 0.7 420.4 0.8 418.6 0.8 416.8 0.8 415.1 0.7 414 0.6 414.4 4 414.5 15.5 414.5 18.9 414.5 24.8 414.4 34.1 414.1 39.6 415.6 39.4 417.1 39.3 418.6 39.3 420.1 39.3 421.6 39.4 423.2 39.6 422.8 34.7 422.7 26.3 422.7 18.5L422.7 18.5ZM451.6 33C449 35.8 446.2 36 444.6 36 437.5 36 436.9 30.4 436.9 27.1 440.4 26.9 441.9 26.9 444.1 26.9 447.2 26.9 450.2 26.9 453.3 27.1 453.4 26.6 453.5 25.6 453.5 25 453.5 18.3 449.8 13.1 441.5 13.1 434.8 13.1 428.2 16.7 428.2 26.7 428.2 34.7 433.1 40.4 441.9 40.4 443.8 40.4 448 40.1 451.2 37.8 451.5 36.8 451.8 35.6 452.6 33.9L451.6 33ZM436.9 24C436.8 17.4 439.2 15.6 441.3 15.6 444 15.6 445.1 17.8 445.1 24L436.9 24ZM474.5 20.3C474.7 18 475.1 16.4 475.7 14.9 473.2 13.7 470.3 13 467.5 13 463.6 13 457.8 14.8 457.8 21.8 457.8 26.2 460 28.5 464.9 30.3 469 31.7 470.6 32.3 470.6 34.3 470.6 36.8 468 37.5 466 37.5 462.3 37.5 460.4 35 459.7 32.8L458.5 32.6C458.5 33.5 458.4 34.3 458.3 35.2 458.1 36.2 458 37.2 457.7 38.2 458.8 39 461.1 40.4 466 40.4 471.2 40.4 476.7 38.1 476.7 31 476.7 25.5 472.9 24 466.9 22.1 465.1 21.5 463.6 20.8 463.6 18.9 463.6 16.7 465.8 16 467.6 16 472 16 472.9 18.8 473.3 20.3L474.5 20.3Z" class="site-nav__logo-fill"/></svg>
