<?xml version="1.0" encoding="UTF-8" standalone="no"?>
<svg width="477px" height="53px" viewBox="0 0 477 53" version="1.1" xmlns="http://www.w3.org/2000/svg" xmlns:xlink="http://www.w3.org/1999/xlink" xmlns:sketch="http://www.bohemiancoding.com/sketch/ns">
    <!-- Generator: Sketch 3.3.3 (12081) - http://www.bohemiancoding.com/sketch -->
    <title>pratiques-picturales-desktop</title>
    <desc>Created with Sketch.</desc>
    <defs></defs>
    <g id="Page-1" stroke="none" stroke-width="1" fill="none" fill-rule="evenodd" sketch:type="MSPage">
        <g id="pratiques-picturales-sprites" sketch:type="MSArtboardGroup" fill="#000000">
            <g id="pratiques-picturales-desktop" sketch:type="MSLayerGroup">
                <path d="M8.73988439,13.3698811 C7.3911368,13.5284016 6.04238921,13.6340819 4.69364162,13.6340819 C2.9132948,13.6340819 1.72639692,13.5284016 0.215799615,13.3698811 C0.701348748,17.332893 0.647398844,22.9339498 0.647398844,30.014531 C0.647398844,37.2536328 0.539499037,44.3870542 0,53 C1.18689788,52.8414795 2.85934489,52.7357992 4.31599229,52.7357992 C5.77263969,52.7357992 7.76878613,52.7886394 9.17148362,53 C8.73988439,48.8784676 8.68593449,44.7569353 8.68593449,36.8309115 C10.9518304,39.2087186 12.894027,40.1070013 16.238921,40.1070013 C24.4393064,40.1070013 28,33.660502 28,26.4742404 C28,18.7595773 24.061657,13 16.2928709,13 C11.8689788,13 9.92678227,15.1664465 8.47013487,17.2800528 L8.73988439,13.3698811 Z M9,27.2673797 C9,22.9358289 9.89473684,17 14,17 C18.4736842,17 19,23.3101604 19,26.5721925 C19,32.5614973 17.7894737,37 13.8947368,37 C9.42105263,37 9,30.6898396 9,27.2673797 L9,27.2673797 Z M48.6315789,21.1264184 C48.4736842,17.3745296 48.7894737,14.7690512 49,13.0494355 C46.3684211,12.8931068 43.5789474,12.7367781 41.1052632,18.8335974 L41.4736842,13.3620929 C40.8421053,13.466312 39.2105263,13.6226407 37.3684211,13.6226407 C35.3684211,13.6226407 33.7368421,13.466312 33,13.3620929 C33.4210526,18.2082826 33.4210526,22.1686098 33.4210526,27.6922239 C33.4210526,34.4143581 33.3157895,35.7692068 33.0526316,39 C33.6842105,38.8957809 35.4210526,38.7394522 37.2105263,38.7394522 C38.7368421,38.7394522 40.6315789,38.7915617 42,39 C41.5263158,34.4143581 41.4736842,29.5160587 41.4736842,27.796443 C41.4736842,24.4614307 41.4736842,20.3968845 45.1578947,20.3968845 C46.2105263,20.3968845 47.1052632,20.8658706 48,21.4911854 L48.6315789,21.1264184 Z M53.0810811,19.815534 C54.1081081,18.8718447 56.1621622,17.0368932 59.7837838,17.0368932 C62.972973,17.0368932 64.6486486,18.6097087 64.6486486,21.5456311 C64.6486486,22.961165 64.5945946,23.1708738 60.8108108,24.2718447 C53.5675676,26.368932 50,27.4699029 50,32.9223301 C50,35.9631068 51.6756757,40 57.6756757,40 C62.1621622,40 64,37.7456311 65.0810811,36.3825243 C65.4594595,37.3786408 66.5405405,39.7902913 70.2162162,39.7902913 C72.5945946,39.7902913 74.9189189,38.6368932 76,37.9553398 C75.8918919,37.2737864 75.8918919,36.592233 76,35.8582524 C75.5675676,36.2776699 74.8108108,36.4873786 74.2162162,36.4873786 C72.3783784,36.4873786 72.3783784,34.7572816 72.3783784,32.8174757 C72.3783784,27.5747573 72.6486486,24.0621359 72.6486486,21.5456311 C72.6486486,19.3436893 72.2162162,17.0893204 70.3783784,15.5165049 C68.1621622,13.6291262 65.1351351,13 62.2702703,13 C59.4594595,13 55.6756757,13.6291262 52,16.4601942 C52.5405405,17.4038835 52.8108108,18.6621359 52.972973,19.7631068 L53.0810811,19.815534 Z M64,26 C64,31.0531915 64,32.5957447 63.7520661,33.6595745 C63.4049587,35.1489362 62.3636364,36 60.9752066,36 C58.3471074,36 58,33.6595745 58,32.0638298 C58,28.3404255 59.2892562,27.0638298 64,26 L64,26 Z M88.4736842,4 C87,4.83965015 84.2631579,6.4664723 80.1578947,7.88338192 C80.2105263,9.87755102 80.3157895,11.5043732 80.3157895,13.8134111 C79.5263158,13.8134111 78.3157895,13.6559767 77,13.5510204 C77.1052632,14.0758017 77.2105263,14.4431487 77.2105263,15.1778426 C77.2105263,15.9650146 77.1578947,16.3848397 77,16.909621 C78.0526316,16.8046647 79.3157895,16.6472303 80.3157895,16.6472303 C80.3157895,21.0029155 80.1052632,27.9300292 80.1052632,32.2857143 C80.1052632,34.9620991 80.4210526,36.5364431 81.8421053,38.0058309 C83.1052632,39.3177843 84.8421053,40 87.1052632,40 C89,40 90.5789474,39.5276968 92.8947368,38.7930029 C92.8421053,38.5306122 92.7368421,38.058309 92.7368421,37.5335277 C92.7368421,37.1137026 92.7894737,36.6938776 92.8947368,36.2215743 C92.3157895,36.483965 91.4736842,36.6938776 90.8421053,36.6938776 C88.2631579,36.6938776 88.2631579,34.3323615 88.2631579,31.1836735 C88.2631579,26.6705539 88.3157895,21.1078717 88.4736842,16.6472303 C89.6842105,16.6472303 91.4736842,16.8046647 93,16.909621 C92.8947368,16.5422741 92.7894737,16.0174927 92.7894737,15.1778426 C92.7894737,14.4431487 92.8947368,14.0758017 93,13.5510204 C91.4210526,13.6559767 89.6315789,13.8134111 88.4736842,13.8134111 C88.4736842,12.0291545 88.8947368,7.56851312 89.1052632,4.47230321 L88.4736842,4 Z M102.526946,0 C99.994012,0 98,2.04790419 98,4.47305389 C98,7.00598802 100.047904,9 102.526946,9 C104.952096,9 107,7.00598802 107,4.47305389 C107,2.04790419 105.005988,0 102.526946,0 L102.526946,0 Z M98.5294118,25.7886179 C98.5294118,29.9105691 98.4235294,34.9837398 98.0529412,39 C99.0588235,38.8414634 100.805882,38.7357724 102.394118,38.7357724 C103.876471,38.7357724 105.729412,38.8414634 107,39 C106.629412,34.7723577 106.470588,28.7479675 106.470588,24.3617886 C106.470588,20.6097561 106.523529,16.7520325 106.894118,13 C105.464706,13.1585366 104.035294,13.2642276 102.552941,13.2642276 C101.070588,13.2642276 99.4294118,13.1585366 98,13 C98.4764706,17.2276423 98.5294118,21.5609756 98.5294118,25.7886179 L98.5294118,25.7886179 Z M130.492308,17.2800528 C129.146154,15.3778071 127.261538,13 122.738462,13 C115.361538,13 111,18.1783355 111,26.4742404 C111,32.7622193 113.853846,40.1070013 122.792308,40.1070013 C127.1,40.1070013 129.038462,38.2047556 130.276923,36.8309115 L130.276923,42.009247 C130.276923,46.5006605 130.115385,50.3051519 129.792308,53 C130.653846,52.8943197 132.376923,52.7357992 134.369231,52.7357992 C136.092308,52.7357992 137.869231,52.8414795 139,53 C138.461538,47.4517834 138.407692,40.001321 138.407692,31.652576 C138.407692,22.7225892 138.407692,17.3857332 138.676923,13.3698811 C137.384615,13.5812417 136.038462,13.6340819 134.746154,13.6340819 C133.238462,13.6340819 131.730769,13.5284016 130.223077,13.3698811 L130.492308,17.2800528 Z M125.052632,17 C128.894737,17 130,22.4010695 130,27.2673797 C130,30.6898396 129.578947,37 125.105263,37 C121.157895,37 120,32.4010695 120,26.5721925 C120,24.9144385 120,17 125.052632,17 L125.052632,17 Z M162.386555,39.2529644 C162.911765,39.1462451 164.644958,38.986166 166.588235,38.986166 C168.478992,38.986166 170.107143,39.1462451 170.894958,39.2529644 C170.684874,36.5849802 170.422269,31.0355731 170.422269,25.2193676 C170.422269,22.0177866 170.579832,16.5217391 171,13 C170.212185,13.1067194 168.584034,13.2667984 166.640756,13.2667984 C164.960084,13.2667984 163.279412,13.1600791 162.071429,13 C162.281513,16.8952569 162.386555,24.7391304 162.386555,28.9011858 C162.386555,31.6225296 161.651261,34.8774704 158.342437,34.8774704 C156.031513,34.8774704 155.033613,33.3300395 154.771008,31.1956522 C154.613445,29.8083004 154.560924,23.298419 154.560924,21.3774704 C154.560924,18.3893281 154.718487,15.9347826 155.086134,13 C154.298319,13.1067194 152.617647,13.2667984 150.67437,13.2667984 C149.203782,13.2667984 147.418067,13.2134387 146,13 C146.052521,14.9209486 146.315126,16.8418972 146.315126,18.7628458 C146.315126,21.3774704 146.420168,28.4209486 146.420168,31.6758893 C146.420168,36.7450593 149.571429,40 154.560924,40 C156.766807,40 159.918067,39.3596838 162.754202,35.1442688 L162.386555,39.2529644 Z M200.161765,32.7126214 C197.588235,35.4912621 194.804622,35.7009709 193.228992,35.7009709 C186.191176,35.7009709 185.560924,30.0912621 185.613445,26.8407767 C189.079832,26.6834951 190.497899,26.631068 192.703782,26.631068 C195.75,26.631068 198.796218,26.6834951 201.842437,26.8407767 C201.894958,26.368932 202,25.3728155 202,24.7436893 C202,18.1902913 198.37605,13 190.182773,13 C183.460084,13 177,16.6174757 177,26.4213592 C177,34.3378641 181.779412,40 190.497899,40 C192.388655,40 196.537815,39.6854369 199.741597,37.431068 C200.004202,36.4349515 200.319328,35.2815534 201.107143,33.6038835 L200.161765,32.7126214 Z M185.003319,24 C184.900136,17.6708861 187.221753,16 189.285413,16 C191.916579,16 192.948409,18.0253165 193,24 L185.003319,24 Z M222.777159,20.1686047 C222.988858,17.9186047 223.465181,16.3488372 224.047354,14.8837209 C221.506964,13.627907 218.649025,13 215.791086,13 C211.980501,13 206.10585,14.7790698 206.10585,21.6860465 C206.10585,25.9767442 208.328691,28.2790698 213.250696,30.005814 C217.37883,31.4709302 218.913649,31.994186 218.913649,34.0348837 C218.913649,36.494186 216.373259,37.122093 214.362117,37.122093 C210.657382,37.122093 208.699164,34.7151163 208.011142,32.4651163 L206.846797,32.3604651 C206.846797,33.1976744 206.740947,34.0348837 206.635097,34.872093 C206.476323,35.8662791 206.317549,36.8604651 206,37.8546512 C207.164345,38.5872093 209.440111,40 214.309192,40 C219.495822,40 225,37.6976744 225,30.6860465 C225,25.3488372 221.24234,23.7790698 215.261838,21.9476744 C213.409471,21.372093 211.927577,20.6395349 211.927577,18.8081395 C211.927577,16.6627907 214.150418,15.9302326 215.949861,15.9302326 C220.342618,15.9302326 221.189415,18.6511628 221.612813,20.1686047 L222.777159,20.1686047 Z M252.739884,13.3698811 C251.391137,13.5284016 250.042389,13.6340819 248.693642,13.6340819 C246.913295,13.6340819 245.726397,13.5284016 244.2158,13.3698811 C244.701349,17.332893 244.647399,22.9339498 244.647399,30.014531 C244.647399,37.2536328 244.539499,44.3870542 244,53 C245.186898,52.8414795 246.859345,52.7357992 248.315992,52.7357992 C249.77264,52.7357992 251.768786,52.7886394 253.171484,53 C252.739884,48.8784676 252.685934,44.7569353 252.685934,36.8309115 C254.95183,39.2087186 256.894027,40.1070013 260.238921,40.1070013 C268.439306,40.1070013 272,33.660502 272,26.4742404 C272,18.7595773 268.061657,13 260.292871,13 C255.868979,13 253.926782,15.1664465 252.470135,17.2800528 L252.739884,13.3698811 Z M252,27.2673797 C252,22.9358289 252.894737,17 257,17 C261.473684,17 262,23.3101604 262,26.5721925 C262,32.5614973 260.789474,37 256.894737,37 C252.421053,37 252,30.6898396 252,27.2673797 L252,27.2673797 Z M280.526946,0 C277.994012,0 276,2.04790419 276,4.47305389 C276,7.00598802 278.047904,9 280.526946,9 C282.952096,9 285,7.00598802 285,4.47305389 C285,2.04790419 283.005988,0 280.526946,0 L280.526946,0 Z M276.529412,25.7886179 C276.529412,29.9105691 276.423529,34.9837398 276.052941,39 C277.058824,38.8414634 278.805882,38.7357724 280.394118,38.7357724 C281.876471,38.7357724 283.729412,38.8414634 285,39 C284.629412,34.7723577 284.470588,28.7479675 284.470588,24.3617886 C284.470588,20.6097561 284.523529,16.7520325 284.894118,13 C283.464706,13.1585366 282.035294,13.2642276 280.552941,13.2642276 C279.070588,13.2642276 277.429412,13.1585366 276,13 C276.476471,17.2276423 276.529412,21.5609756 276.529412,25.7886179 L276.529412,25.7886179 Z M311.944954,33.4210526 C309.149083,35.8421053 307.619266,36 306.511468,36 C300.761468,36 298.809633,31.1578947 298.809633,26.1578947 C298.809633,23.2631579 299.389908,16.2631579 304.770642,16.2631579 C306.56422,16.2631579 308.990826,17.4736842 309.518349,21.4736842 L311.048165,21.4736842 C311.206422,20.3684211 311.62844,18.2105263 312.947248,15.4736842 C311.575688,14.5263158 309.254587,13 304.454128,13 C300.761468,13 290,14.2631579 290,26.8947368 C290,33.4210526 293.850917,40 303.768349,40 C308.041284,40 310.46789,38.7368421 311.364679,38.0526316 C312.050459,36.2631579 312.31422,35.5789474 313,34.4736842 L311.944954,33.4210526 Z M327.473684,4 C326,4.83965015 323.263158,6.4664723 319.157895,7.88338192 C319.210526,9.87755102 319.315789,11.5043732 319.315789,13.8134111 C318.526316,13.8134111 317.315789,13.6559767 316,13.5510204 C316.105263,14.0758017 316.210526,14.4431487 316.210526,15.1778426 C316.210526,15.9650146 316.157895,16.3848397 316,16.909621 C317.052632,16.8046647 318.315789,16.6472303 319.315789,16.6472303 C319.315789,21.0029155 319.105263,27.9300292 319.105263,32.2857143 C319.105263,34.9620991 319.421053,36.5364431 320.842105,38.0058309 C322.105263,39.3177843 323.842105,40 326.105263,40 C328,40 329.578947,39.5276968 331.894737,38.7930029 C331.842105,38.5306122 331.736842,38.058309 331.736842,37.5335277 C331.736842,37.1137026 331.789474,36.6938776 331.894737,36.2215743 C331.315789,36.483965 330.473684,36.6938776 329.842105,36.6938776 C327.263158,36.6938776 327.263158,34.3323615 327.263158,31.1836735 C327.263158,26.6705539 327.315789,21.1078717 327.473684,16.6472303 C328.684211,16.6472303 330.473684,16.8046647 332,16.909621 C331.894737,16.5422741 331.789474,16.0174927 331.789474,15.1778426 C331.789474,14.4431487 331.894737,14.0758017 332,13.5510204 C330.421053,13.6559767 328.631579,13.8134111 327.473684,13.8134111 C327.473684,12.0291545 327.894737,7.56851312 328.105263,4.47230321 L327.473684,4 Z M352.386555,39.2529644 C352.911765,39.1462451 354.644958,38.986166 356.588235,38.986166 C358.478992,38.986166 360.107143,39.1462451 360.894958,39.2529644 C360.684874,36.5849802 360.422269,31.0355731 360.422269,25.2193676 C360.422269,22.0177866 360.579832,16.5217391 361,13 C360.212185,13.1067194 358.584034,13.2667984 356.640756,13.2667984 C354.960084,13.2667984 353.279412,13.1600791 352.071429,13 C352.281513,16.8952569 352.386555,24.7391304 352.386555,28.9011858 C352.386555,31.6225296 351.651261,34.8774704 348.342437,34.8774704 C346.031513,34.8774704 345.033613,33.3300395 344.771008,31.1956522 C344.613445,29.8083004 344.560924,23.298419 344.560924,21.3774704 C344.560924,18.3893281 344.718487,15.9347826 345.086134,13 C344.298319,13.1067194 342.617647,13.2667984 340.67437,13.2667984 C339.203782,13.2667984 337.418067,13.2134387 336,13 C336.052521,14.9209486 336.315126,16.8418972 336.315126,18.7628458 C336.315126,21.3774704 336.420168,28.4209486 336.420168,31.6758893 C336.420168,36.7450593 339.571429,40 344.560924,40 C346.766807,40 349.918067,39.3596838 352.754202,35.1442688 L352.386555,39.2529644 Z M383.631579,21.1264184 C383.473684,17.3745296 383.789474,14.7690512 384,13.0494355 C381.368421,12.8931068 378.578947,12.7367781 376.105263,18.8335974 L376.473684,13.3620929 C375.842105,13.466312 374.210526,13.6226407 372.368421,13.6226407 C370.368421,13.6226407 368.736842,13.466312 368,13.3620929 C368.421053,18.2082826 368.421053,22.1686098 368.421053,27.6922239 C368.421053,34.4143581 368.315789,35.7692068 368.052632,39 C368.684211,38.8957809 370.421053,38.7394522 372.210526,38.7394522 C373.736842,38.7394522 375.631579,38.7915617 377,39 C376.526316,34.4143581 376.473684,29.5160587 376.473684,27.796443 C376.473684,24.4614307 376.473684,20.3968845 380.157895,20.3968845 C381.210526,20.3968845 382.105263,20.8658706 383,21.4911854 L383.631579,21.1264184 Z M389.081081,19.815534 C390.108108,18.8718447 392.162162,17.0368932 395.783784,17.0368932 C398.972973,17.0368932 400.648649,18.6097087 400.648649,21.5456311 C400.648649,22.961165 400.594595,23.1708738 396.810811,24.2718447 C389.567568,26.368932 386,27.4699029 386,32.9223301 C386,35.9631068 387.675676,40 393.675676,40 C398.162162,40 400,37.7456311 401.081081,36.3825243 C401.459459,37.3786408 402.540541,39.7902913 406.216216,39.7902913 C408.594595,39.7902913 410.918919,38.6368932 412,37.9553398 C411.891892,37.2737864 411.891892,36.592233 412,35.8582524 C411.567568,36.2776699 410.810811,36.4873786 410.216216,36.4873786 C408.378378,36.4873786 408.378378,34.7572816 408.378378,32.8174757 C408.378378,27.5747573 408.648649,24.0621359 408.648649,21.5456311 C408.648649,19.3436893 408.216216,17.0893204 406.378378,15.5165049 C404.162162,13.6291262 401.135135,13 398.27027,13 C395.459459,13 391.675676,13.6291262 388,16.4601942 C388.540541,17.4038835 388.810811,18.6621359 388.972973,19.7631068 L389.081081,19.815534 Z M400,26 C400,31.0531915 400,32.5957447 399.752066,33.6595745 C399.404959,35.1489362 398.363636,36 396.975207,36 C394.347107,36 394,33.6595745 394,32.0638298 C394,28.3404255 395.289256,27.0638298 400,26 L400,26 Z M422.52907,18.9633152 C422.52907,11.0679348 422.686047,3.75543478 422.947674,1 C421.953488,1.15896739 420.331395,1.26494565 418.5,1.26494565 C416.72093,1.26494565 415.046512,1.15896739 414,1 C414.366279,4.44429348 414.47093,15.8899457 414.47093,19.28125 C414.47093,25.2160326 414.366279,34.4891304 414.052326,40 C415.517442,39.7880435 417.034884,39.7350543 418.5,39.7350543 C419.965116,39.7350543 421.482558,39.7880435 423,40 C422.686047,35.125 422.52907,26.7527174 422.52907,18.9633152 L422.52907,18.9633152 Z M452.161765,32.7126214 C449.588235,35.4912621 446.804622,35.7009709 445.228992,35.7009709 C438.191176,35.7009709 437.560924,30.0912621 437.613445,26.8407767 C441.079832,26.6834951 442.497899,26.631068 444.703782,26.631068 C447.75,26.631068 450.796218,26.6834951 453.842437,26.8407767 C453.894958,26.368932 454,25.3728155 454,24.7436893 C454,18.1902913 450.37605,13 442.182773,13 C435.460084,13 429,16.6174757 429,26.4213592 C429,34.3378641 433.779412,40 442.497899,40 C444.388655,40 448.537815,39.6854369 451.741597,37.431068 C452.004202,36.4349515 452.319328,35.2815534 453.107143,33.6038835 L452.161765,32.7126214 Z M437.003319,24 C436.900136,17.6708861 439.221753,16 441.285413,16 C443.916579,16 444.948409,18.0253165 445,24 L437.003319,24 Z M474.777159,20.1686047 C474.988858,17.9186047 475.465181,16.3488372 476.047354,14.8837209 C473.506964,13.627907 470.649025,13 467.791086,13 C463.980501,13 458.10585,14.7790698 458.10585,21.6860465 C458.10585,25.9767442 460.328691,28.2790698 465.250696,30.005814 C469.37883,31.4709302 470.913649,31.994186 470.913649,34.0348837 C470.913649,36.494186 468.373259,37.122093 466.362117,37.122093 C462.657382,37.122093 460.699164,34.7151163 460.011142,32.4651163 L458.846797,32.3604651 C458.846797,33.1976744 458.740947,34.0348837 458.635097,34.872093 C458.476323,35.8662791 458.317549,36.8604651 458,37.8546512 C459.164345,38.5872093 461.440111,40 466.309192,40 C471.495822,40 477,37.6976744 477,30.6860465 C477,25.3488372 473.24234,23.7790698 467.261838,21.9476744 C465.409471,21.372093 463.927577,20.6395349 463.927577,18.8081395 C463.927577,16.6627907 466.150418,15.9302326 467.949861,15.9302326 C472.342618,15.9302326 473.189415,18.6511628 473.612813,20.1686047 L474.777159,20.1686047 Z" sketch:type="MSShapeGroup"></path>
            </g>
        </g>
    </g>
</svg>